<svg id="svg" version="1.1" xmlns="http://www.w3.org/2000/svg" style="display: block;" viewBox="0 0 225 225"><path d="M0 0 C74.25 0 148.5 0 225 0 C225 74.25 225 148.5 225 225 C150.75 225 76.5 225 0 225 C0 150.75 0 76.5 0 0 Z " transform="translate(0,0)" style="fill: #E3EFE8;"/><path d="M0 0 C0.639375 0.33 1.27875 0.66 1.9375 1 C0.7 2.2065625 0.7 2.2065625 -0.5625 3.4375 C-3.17888731 5.52263018 -3.17888731 5.52263018 -3.0625 7 C-2.25425781 6.57847656 -1.44601563 6.15695313 -0.61328125 5.72265625 C0.45535156 5.17480469 1.52398437 4.62695312 2.625 4.0625 C4.20861328 3.24458984 4.20861328 3.24458984 5.82421875 2.41015625 C13.59275205 -1.1085897 23.00156508 -1.26350487 31.203125 0.8359375 C39.30912069 3.93284355 46.09093992 8.73015988 50.9375 16 C53.37659263 17.05611486 53.37659263 17.05611486 56.1875 17.875 C62.88715309 20.20455258 66.90684189 22.65207684 70.25 29.125 C74.9482969 39.31455531 73.7421693 50.66250705 69.9375 61 C68.5800219 64.14827547 67.20244378 67.27458606 65.73046875 70.37109375 C64.65881915 72.92860192 64.65881915 72.92860192 65.76953125 75.046875 C66.34767578 76.01367188 66.34767578 76.01367188 66.9375 77 C67.6831156 81.28012032 67.87979868 85.29896731 65.734375 89.171875 C62.98829293 92.52819753 61.18790031 94.05686708 56.9375 95 C58.81346332 106.17887148 60.71707462 117.3460596 63.0625 128.4375 C63.22073242 129.18620361 63.37896484 129.93490723 63.54199219 130.70629883 C64.30990372 134.27499461 65.13145465 137.82347545 66.0234375 141.36328125 C67.52721774 147.34627016 67.52721774 147.34627016 66.9375 150 C52.63020151 160.61919488 29.72521064 167.6588041 11.9375 167 C11.94910156 167.56847656 11.96070312 168.13695312 11.97265625 168.72265625 C12.01772984 172.57966787 11.96113518 175.89273265 11.125 179.6875 C10.91765719 183.35055639 11.12361704 183.69431869 13.375 186.3125 C14.6434375 187.6428125 14.6434375 187.6428125 15.9375 189 C15.9375 189.66 15.9375 190.32 15.9375 191 C-19.7025 191 -55.3425 191 -92.0625 191 C-92.0625 165.26 -92.0625 139.52 -92.0625 113 C-89.5875 112.01 -89.5875 112.01 -87.0625 111 C-85.5775 110.01 -85.5775 110.01 -84.0625 109 C-83.0725 109 -82.0825 109 -81.0625 109 C-81.0625 108.34 -81.0625 107.68 -81.0625 107 C-79.8559375 106.5978125 -79.8559375 106.5978125 -78.625 106.1875 C-77.3565625 105.5996875 -77.3565625 105.5996875 -76.0625 105 C-75.5675 103.515 -75.5675 103.515 -75.0625 102 C-73.73946283 101.6278958 -72.40512065 101.29369827 -71.0625 101 C-70.7325 100.34 -70.4025 99.68 -70.0625 99 C-67.73578135 97.98470459 -65.4021553 96.98511802 -63.0625 96 C-62.0725 95.01 -62.0725 95.01 -61.0625 94 C-58.4375 93.875 -58.4375 93.875 -56.0625 94 C-56.0625 93.34 -56.0625 92.68 -56.0625 92 C-54.43854003 91.49663233 -52.81329459 90.99741024 -51.1875 90.5 C-50.28257813 90.2215625 -49.37765625 89.943125 -48.4453125 89.65625 C-46.0625 89 -46.0625 89 -44.0625 89 C-44.0625 88.34 -44.0625 87.68 -44.0625 87 C-43.39863281 86.80664062 -42.73476563 86.61328125 -42.05078125 86.4140625 C-41.16777344 86.15367188 -40.28476562 85.89328125 -39.375 85.625 C-38.50488281 85.36976562 -37.63476562 85.11453125 -36.73828125 84.8515625 C-35.85527344 84.57054688 -34.97226562 84.28953125 -34.0625 84 C-32.70898438 83.74283203 -32.70898438 83.74283203 -31.328125 83.48046875 C-28.93695423 82.25256089 -28.93695423 82.25256089 -28.45385742 80.17578125 C-28.02331872 77.68243295 -27.74336996 75.20598953 -27.5 72.6875 C-26.42797983 63.8334075 -25.10184974 55.07869948 -21.0625 47 C-21.76375 46.896875 -22.465 46.79375 -23.1875 46.6875 C-28.32376056 45.45926378 -32.87471592 43.36189652 -36.1328125 39.0390625 C-38.91194953 32.9436443 -37.9042943 26.36739219 -35.73046875 20.25390625 C-31.21216545 10.09139237 -25.26312766 4.32417912 -15.0625 0 C-10.06597926 -1.66550691 -5.00477317 -1.63421165 0 0 Z " transform="translate(92.0625,34)" style="fill: #AED1BD;"/><path d="M0 0 C7.25761666 -0.41516027 13.98668921 0.41752417 21.07836914 1.86035156 C25.89875782 2.83143117 30.61851579 3.3938466 35.515625 3.75 C39.4387881 4.14478371 43.1744591 5.05929322 47 6 C47 6.66 47 7.32 47 8 C48.27875 8.0825 49.5575 8.165 50.875 8.25 C55.65289148 8.74974776 59.58105432 10.28248162 63.93359375 12.2578125 C64.61550781 12.50273438 65.29742187 12.74765625 66 13 C66.66 12.67 67.32 12.34 68 12 C68 47.97 68 83.94 68 121 C39.00183142 121.32130935 39.00183142 121.32130935 24.67936325 121.40203094 C16.93265319 121.44636592 9.18663212 121.50265106 1.44042969 121.60351562 C-5.34826329 121.69187005 -12.13621003 121.7382669 -18.92544174 121.75901794 C-21.51631282 121.77380673 -24.10714281 121.80268635 -26.69769669 121.84584045 C-30.32556762 121.90387416 -33.95035331 121.91191452 -37.57861328 121.90820312 C-39.18731041 121.95134644 -39.18731041 121.95134644 -40.82850647 121.99536133 C-47.8986507 121.91703728 -47.8986507 121.91703728 -51.03152084 119.30845642 C-53.82295925 115.8085754 -55.3523759 113.2718428 -55.1484375 108.71875 C-54.9261313 107.30645177 -54.66783255 105.89937681 -54.375 104.5 C-54.25253906 103.77296875 -54.13007812 103.0459375 -54.00390625 102.296875 C-53.70091563 100.52554522 -53.35489831 98.7616639 -53 97 C-52.41847168 96.92072266 -51.83694336 96.84144531 -51.23779297 96.75976562 C-39.84622916 95.14609077 -28.94851269 93.03840799 -18.125 89.0625 C-17.24183105 88.73894531 -16.35866211 88.41539062 -15.44873047 88.08203125 C-9.66968155 85.86498794 -4.32921397 83.14218717 1 80 C0.54604049 72.96641997 -0.50643326 66.37574208 -2.17578125 59.52734375 C-3.68589628 53.06462399 -4.81185818 46.52810505 -6 40 C-6.20882812 38.90429688 -6.41765625 37.80859375 -6.6328125 36.6796875 C-6.81585938 35.71289062 -6.99890625 34.74609375 -7.1875 33.75 C-7.34605469 32.91984375 -7.50460938 32.0896875 -7.66796875 31.234375 C-8 29 -8 29 -8 25 C-6.36209288 23.95355934 -4.68991979 22.9601817 -3 22 C-0.4224918 19.70114134 0.85453617 18.09008076 1.31640625 14.62890625 C1.42126354 9.92430915 1.01848862 6.30610906 -1 2 C-0.67 1.34 -0.34 0.68 0 0 Z " transform="translate(157,104)" style="fill: #AFD2BD;"/><path d="M0 0 C0.639375 0.33 1.27875 0.66 1.9375 1 C1.1125 1.804375 0.2875 2.60875 -0.5625 3.4375 C-3.17888731 5.52263018 -3.17888731 5.52263018 -3.0625 7 C-2.25425781 6.57847656 -1.44601563 6.15695313 -0.61328125 5.72265625 C0.45535156 5.17480469 1.52398437 4.62695312 2.625 4.0625 C4.20861328 3.24458984 4.20861328 3.24458984 5.82421875 2.41015625 C13.59275205 -1.1085897 23.00156508 -1.26350487 31.203125 0.8359375 C39.30912069 3.93284355 46.09093992 8.73015988 50.9375 16 C53.37659263 17.05611486 53.37659263 17.05611486 56.1875 17.875 C62.88715309 20.20455258 66.90684189 22.65207684 70.25 29.125 C74.51865989 38.38276871 73.91700947 48.68639247 70.9375 58.3125 C69.19480929 62.99598129 67.13308658 67.51336656 64.9375 72 C64.28523438 71.96519531 63.63296875 71.93039063 62.9609375 71.89453125 C62.08695312 71.86746094 61.21296875 71.84039062 60.3125 71.8125 C59.02472656 71.76029297 59.02472656 71.76029297 57.7109375 71.70703125 C54.29856199 72.06749345 51.95574931 73.41788262 48.9375 75 C48.92291748 75.85529297 48.90833496 76.71058594 48.89331055 77.59179688 C48.04544356 122.10031956 48.04544356 122.10031956 38.41674805 131.48168945 C25.32764164 142.90255748 7.70366884 150.30515543 -9.6875 150.5625 C-10.43378662 150.57740479 -11.18007324 150.59230957 -11.94897461 150.60766602 C-17.88605279 150.49386697 -21.56433039 148.49816961 -25.8125 144.25 C-29.36430691 137.85674755 -29.33942751 130.92264016 -29.2578125 123.8125 C-29.25356766 122.39783447 -29.25356766 122.39783447 -29.24923706 120.95458984 C-29.23812442 117.96959244 -29.21303672 114.98490531 -29.1875 112 C-29.17745866 109.96484811 -29.16833484 107.92969148 -29.16015625 105.89453125 C-29.13821435 100.92956963 -29.10374673 95.96483725 -29.0625 91 C-28.4025 91 -27.7425 91 -27.0625 91 C-26.0725 93.31 -25.0825 95.62 -24.0625 98 C-20.54571032 97.42251073 -20.54571032 97.42251073 -17.32128906 95.98413086 C-12.60662213 93.9299996 -7.04095929 94.5878916 -1.95556641 94.57446289 C0.16753131 94.56261147 2.28767539 94.51344937 4.41015625 94.46289062 C11.34778803 94.38212777 16.88788683 94.40345837 22.47265625 98.90942383 C24.00145647 100.260166 24.00145647 100.260166 26.6875 100.125 C32.24050354 97.34849823 34.10663648 91.68771937 36.0625 86.1875 C36.31386719 85.51396484 36.56523437 84.84042969 36.82421875 84.14648438 C40.29692188 74.64655042 41.20699105 66.61437333 41.0625 56.5 C41.05347656 55.29601562 41.04445313 54.09203125 41.03515625 52.8515625 C41.01173775 49.9008321 40.97893993 46.95052311 40.9375 44 C29.33429005 43.07468073 20.70704276 44.55944632 10.05859375 49.2734375 C3.01835159 52.36086924 -4.36449055 54.08646605 -12.0625 53 C-15.65307418 50.90549839 -17.54361744 48.86624652 -19.0625 45 C-19.3925 45.33 -19.7225 45.66 -20.0625 46 C-25.23159599 46.25512706 -29.08630338 45.44474194 -33.0625 42.0625 C-36.71527584 38.62111165 -37.31769994 36.26840132 -37.5625 31.25 C-37.49363352 22.38590061 -33.98495694 14.67001039 -28.3203125 7.92578125 C-20.68136712 0.93808237 -10.150773 -3.31453812 0 0 Z " transform="translate(92.0625,34)" style="fill: #022C19;"/><path d="M0 0 C0.33 0 0.66 0 1 0 C0.67 4.62 0.34 9.24 0 14 C2.64 14 5.28 14 8 14 C8.495 15.485 8.495 15.485 9 17 C8.01 17.66 7.02 18.32 6 19 C5.53702822 21.93839959 5.53702822 21.93839959 5.59375 25.4140625 C5.5740918 26.72560303 5.55443359 28.03714355 5.53417969 29.38842773 C5.52914429 30.08120819 5.52410889 30.77398865 5.5189209 31.48776245 C5.22700592 64.46144241 5.22700592 64.46144241 -3 74 C-15.82111643 86.49178931 -34.80288417 94.29877852 -52.625 94.5625 C-53.37128662 94.57740479 -54.11757324 94.59230957 -54.88647461 94.60766602 C-60.82355279 94.49386697 -64.50183039 92.49816961 -68.75 88.25 C-72.30180691 81.85674755 -72.27692751 74.92264016 -72.1953125 67.8125 C-72.1924826 66.86938965 -72.18965271 65.9262793 -72.18673706 64.95458984 C-72.17562442 61.96959244 -72.15053672 58.98490531 -72.125 56 C-72.11495866 53.96484811 -72.10583484 51.92969148 -72.09765625 49.89453125 C-72.07571435 44.92956963 -72.04124673 39.96483725 -72 35 C-71.34 35 -70.68 35 -70 35 C-68.515 38.465 -68.515 38.465 -67 42 C-63.48321032 41.42251073 -63.48321032 41.42251073 -60.25878906 39.98413086 C-55.54412213 37.9299996 -49.97845929 38.5878916 -44.89306641 38.57446289 C-42.76996869 38.56261147 -40.64982461 38.51344937 -38.52734375 38.46289062 C-31.58971197 38.38212777 -26.04961317 38.40345837 -20.46484375 42.90942383 C-18.93604353 44.260166 -18.93604353 44.260166 -16.25 44.125 C-10.69699646 41.34849823 -8.83086352 35.68771937 -6.875 30.1875 C-6.62363281 29.51396484 -6.37226563 28.84042969 -6.11328125 28.14648438 C-3.51410844 21.03618178 -1.88580512 14.00883807 -0.875 6.5 C-0.70742187 5.2728125 -0.53984375 4.045625 -0.3671875 2.78125 C-0.18542969 1.40453125 -0.18542969 1.40453125 0 0 Z " transform="translate(135,90)" style="fill: #022C18;"/><path d="M0 0 C0.33 0 0.66 0 1 0 C1.2475 1.093125 1.495 2.18625 1.75 3.3125 C3.07778464 7.22946468 3.59005027 7.97229775 7 10 C17.03343018 12.33335586 29.10509963 6.84022641 38.125 2.6875 C44.74412723 -0.10899668 53.20015554 -0.26661482 60 2 C60.40983689 5.99590964 60.72575821 9.99253127 61 14 C61.11988281 15.65902344 61.11988281 15.65902344 61.2421875 17.3515625 C61.7666823 30.77245898 57.35201996 44.71300136 50.0625 56 C48 58 48 58 45.75 59.125 C42.57063563 58.98048344 42.1910792 58.44267699 39.8046875 56.5234375 C34.14873939 52.88213089 27.97301363 53.32143905 21.48144531 53.45800781 C19.37210239 53.50005776 17.26594403 53.49904989 15.15625 53.4921875 C8.60445093 53.54283951 3.8751843 53.81410821 -2 57 C-4.25 56.875 -4.25 56.875 -6 56 C-8.86013524 51.70979714 -8.5919388 47.7503055 -8.8125 42.6875 C-8.85600586 41.6965332 -8.89951172 40.70556641 -8.94433594 39.68457031 C-9.18771955 31.64244304 -8.3168938 24.73641059 -6 17 C-5.72414063 16.01 -5.44828125 15.02 -5.1640625 14 C-3.365 7.73 -3.365 7.73 -2 5 C-2.99 4.67 -3.98 4.34 -5 4 C-4.360625 3.896875 -3.72125 3.79375 -3.0625 3.6875 C-2.381875 3.460625 -1.70125 3.23375 -1 3 C-0.67 2.01 -0.34 1.02 0 0 Z " transform="translate(73,76)" style="fill: #F0BCA4;"/><path d="M0 0 C2.67431489 1.81163267 2.95920359 2.87761077 4 6 C4.59314706 10.29468502 4.9419399 14.29100807 2.80078125 18.17578125 C0.04788048 21.52502829 -1.74950291 23.05684561 -6 24 C-4.12403668 35.17887148 -2.22042538 46.3460596 0.125 57.4375 C0.36234863 58.56055542 0.36234863 58.56055542 0.60449219 59.70629883 C1.37240372 63.27499461 2.19395465 66.82347545 3.0859375 70.36328125 C4.58971774 76.34627016 4.58971774 76.34627016 4 79 C-10.30729849 89.61919488 -33.21228936 96.6588041 -51 96 C-50.98839844 96.56847656 -50.97679688 97.13695312 -50.96484375 97.72265625 C-50.91977016 101.57966787 -50.97636482 104.89273265 -51.8125 108.6875 C-52.01984281 112.35055639 -51.81388296 112.69431869 -49.5625 115.3125 C-48.716875 116.199375 -47.87125 117.08625 -47 118 C-47 118.66 -47 119.32 -47 120 C-52.94 120 -58.88 120 -65 120 C-63 116 -63 116 -60.375 113.75 C-57.72882529 110.68600823 -57.42443549 109.05426989 -57.7109375 105.05078125 C-58.62806889 98.54410584 -60.27175447 95.49759941 -65 91 C-67.63392047 86.73123234 -68.13078609 83.94922099 -68 79 C-66.58460937 78.65388672 -66.58460937 78.65388672 -65.140625 78.30078125 C-50.18851279 74.54513022 -32.27642782 69.21996027 -22 57 C-16.80657202 48.0859072 -15.86601441 37.3026186 -15.83203125 27.1875 C-15.82786194 26.51901535 -15.82369263 25.8505307 -15.81939697 25.16178894 C-15.80743265 22.40300191 -15.80242648 19.64574967 -15.84545898 16.88720703 C-15.99838706 5.23489979 -15.99838706 5.23489979 -13.53759766 2.19116211 C-9.04812316 -0.52140412 -5.00529271 -0.58395082 0 0 Z " transform="translate(155,105)" style="fill: #E98E63;"/><path d="M0 0 C1.06129426 2.24250878 2.09881233 4.49149089 3.125 6.75 C3.42792969 7.38421875 3.73085937 8.0184375 4.04296875 8.671875 C4.8828125 10.546875 4.8828125 10.546875 6 14 C5.19140625 15.86328125 5.19140625 15.86328125 4 18 C3.3233217 19.87023021 2.67759609 21.75180541 2.0546875 23.640625 C1.70019531 24.71054688 1.34570312 25.78046875 0.98046875 26.8828125 C0.61566406 27.99398437 0.25085938 29.10515625 -0.125 30.25 C-0.49753906 31.37664062 -0.87007812 32.50328125 -1.25390625 33.6640625 C-2.17198083 36.4418266 -3.08723868 39.22048637 -4 42 C-11.01040027 42.20313659 -18.02004013 42.34305897 -25.03271484 42.43945312 C-27.41711791 42.47964151 -29.80132435 42.53420392 -32.18505859 42.60351562 C-35.61605312 42.70076766 -39.0444395 42.74597374 -42.4765625 42.78125 C-44.07064438 42.84318542 -44.07064438 42.84318542 -45.69692993 42.90637207 C-52.8955721 42.9107193 -52.8955721 42.9107193 -56.0418396 40.31628418 C-58.82844663 36.81439043 -60.35141257 34.26937366 -60.1484375 29.71875 C-59.9261313 28.30645177 -59.66783255 26.89937681 -59.375 25.5 C-59.25253906 24.77296875 -59.13007812 24.0459375 -59.00390625 23.296875 C-58.70091563 21.52554522 -58.35489831 19.7616639 -58 18 C-57.41847168 17.92072266 -56.83694336 17.84144531 -56.23779297 17.75976562 C-37.83965972 15.1535734 -19.87081902 10.76036766 -3.828125 1.03125 C-2 0 -2 0 0 0 Z " transform="translate(162,183)" style="fill: #FCFDFB;"/><path d="M0 0 C11.60326875 1.83535116 22.41391401 4.83956964 33.5 8.6875 C35.01658624 9.20477642 36.53351252 9.72105701 38.05078125 10.23632812 C41.7045206 11.47950545 45.35347023 12.73583974 49 14 C48.08184517 15.11353515 47.15741333 16.22189602 46.23046875 17.328125 C45.71637451 17.9459082 45.20228027 18.56369141 44.67260742 19.20019531 C38.30540767 26.05160337 29.07735842 28.86812457 19.92163086 29.23876953 C15.38390717 29.32972846 10.84995679 29.263053 6.3125 29.1875 C4.72462215 29.17241751 3.13673035 29.15873545 1.54882812 29.14648438 C-2.30113221 29.11377999 -6.15040784 29.06219823 -10 29 C-6.69030733 16.77344366 -6.69030733 16.77344366 -5 11.125 C-4.690625 10.07570312 -4.38125 9.02640625 -4.0625 7.9453125 C-3.00459265 5.01273109 -1.63550074 2.64209128 0 0 Z " transform="translate(168,196)" style="fill: #35976A;"/><path d="M0 0 C0 3 0 3 -1 6 C-1.639375 6.12375 -2.27875 6.2475 -2.9375 6.375 C-3.618125 6.58125 -4.29875 6.7875 -5 7 C-5.38478516 8.10794922 -5.38478516 8.10794922 -5.77734375 9.23828125 C-7.37398127 12.84474364 -9.53103889 14.40208843 -12.625 16.8125 C-13.62789062 17.60269531 -14.63078125 18.39289063 -15.6640625 19.20703125 C-16.43492188 19.79871094 -17.20578125 20.39039063 -18 21 C-17.34 21.99 -16.68 22.98 -16 24 C-16.33 24.99 -16.66 25.98 -17 27 C-14.36 27 -11.72 27 -9 27 C-9 27.66 -9 28.32 -9 29 C-9.639375 29.12375 -10.27875 29.2475 -10.9375 29.375 C-11.618125 29.58125 -12.29875 29.7875 -13 30 C-13.33 30.66 -13.66 31.32 -14 32 C-11.69 32 -9.38 32 -7 32 C-7 32.33 -7 32.66 -7 33 C-13.11980533 34.40454548 -18.71739294 35.23268915 -25 35 C-24.98839844 35.56847656 -24.97679688 36.13695312 -24.96484375 36.72265625 C-24.91977016 40.57966787 -24.97636482 43.89273265 -25.8125 47.6875 C-26.01984281 51.35055639 -25.81388296 51.69431869 -23.5625 54.3125 C-22.716875 55.199375 -21.87125 56.08625 -21 57 C-21 57.66 -21 58.32 -21 59 C-26.94 59 -32.88 59 -39 59 C-37 55 -37 55 -34.375 52.75 C-31.72882529 49.68600823 -31.42443549 48.05426989 -31.7109375 44.05078125 C-32.62806889 37.54410584 -34.27175447 34.49759941 -39 30 C-41.63392047 25.73123234 -42.13078609 22.94922099 -42 18 C-41.05640625 17.76925781 -40.1128125 17.53851563 -39.140625 17.30078125 C-25.23625447 13.80830054 -11.42396498 8.93819483 0 0 Z " transform="translate(129,166)" style="fill: #E79066;"/><path d="M0 0 C2.47588471 5.1498402 3.18173709 8.5739328 2.58984375 14.296875 C2.48406006 15.36776367 2.37827637 16.43865234 2.26928711 17.54199219 C2.18042236 18.35313477 2.09155762 19.16427734 2 20 C-4.56527228 20.07629277 -11.13042948 20.1287016 -17.69604492 20.16479492 C-19.92785922 20.17984741 -22.1596441 20.20029398 -24.39135742 20.22631836 C-27.60603104 20.26285688 -30.82031228 20.27976215 -34.03515625 20.29296875 C-35.52306419 20.31619453 -35.52306419 20.31619453 -37.04103088 20.33988953 C-42.82470584 20.34128306 -46.86328147 19.70402852 -52 17 C-48.81784856 13.40917133 -45.14147318 12.78372684 -40.625 11.6875 C-34.84894428 10.20013829 -29.5621666 8.52615133 -24.1875 5.875 C-16.59557551 2.14158212 -8.52368228 -0.2820336 0 0 Z " transform="translate(75,205)" style="fill: #37986B;"/><path d="M0 0 C0.66 0 1.32 0 2 0 C2.15855469 0.66386719 2.31710938 1.32773438 2.48046875 2.01171875 C4.02522789 7.85790665 5.56241506 10.78429431 10 15 C12.83824107 20.14921997 13.91836624 25.21429271 13 31 C11.36908682 33.11230231 9.64197866 34.80595793 7.62890625 36.5546875 C5.88355004 37.92271626 5.88355004 37.92271626 5 40 C0.71 40 -3.58 40 -8 40 C-7.96744792 36.97265625 -7.93489583 33.9453125 -7.90234375 30.91796875 C-7.86375234 27.93487831 -7.86375234 27.93487831 -9 25 C-9.60510282 18.78812163 -7.93614411 14.98777691 -5.0625 9.6875 C-4.50272461 8.61532227 -4.50272461 8.61532227 -3.93164062 7.52148438 C-2.96576734 5.6750131 -1.98397367 3.83688954 -1 2 C-0.67 1.34 -0.34 0.68 0 0 Z " transform="translate(85,185)" style="fill: #FAFCFA;"/><path d="M0 0 C0.40983689 3.99590964 0.72575821 7.99253127 1 12 C1.07992187 13.10601562 1.15984375 14.21203125 1.2421875 15.3515625 C1.62144905 25.05619623 -0.72712794 32.99960183 -4 42 C-4.98043964 39.05868109 -5.11621202 37.17498335 -5.09765625 34.11328125 C-5.09443359 33.17548828 -5.09121094 32.23769531 -5.08789062 31.27148438 C-5.07951172 30.29501953 -5.07113281 29.31855469 -5.0625 28.3125 C-5.05798828 27.32443359 -5.05347656 26.33636719 -5.04882812 25.31835938 C-5.03704303 22.87884526 -5.02059011 20.43945311 -5 18 C-5.66 18 -6.32 18 -7 18 C-11 12.58823529 -11 12.58823529 -11 10 C-12.134375 9.690625 -13.26875 9.38125 -14.4375 9.0625 C-18 8 -18 8 -19 7 C-21.69654854 6.92680379 -24.36691458 6.90757463 -27.0625 6.9375 C-28.20041992 6.94426758 -28.20041992 6.94426758 -29.36132812 6.95117188 C-31.24091871 6.9629932 -33.12046899 6.98092922 -35 7 C-24.84409182 0.22939455 -12.02334791 -4.00778264 0 0 Z " transform="translate(133,78)" style="fill: #E08C64;"/><path d="M0 0 C0 3 0 3 -1 6 C-1.639375 6.12375 -2.27875 6.2475 -2.9375 6.375 C-3.618125 6.58125 -4.29875 6.7875 -5 7 C-5.27972656 7.75667969 -5.55945313 8.51335937 -5.84765625 9.29296875 C-10.05279544 19.17148217 -25.44185045 25.57411214 -34.87109375 29.43359375 C-37 30 -37 30 -40 29 C-42.03320938 25.2546143 -42.07537273 22.19188342 -42 18 C-41.05640625 17.76925781 -40.1128125 17.53851563 -39.140625 17.30078125 C-25.23625447 13.80830054 -11.42396498 8.93819483 0 0 Z " transform="translate(129,166)" style="fill: #CA642B;"/><path d="M0 0 C3.25 1.75 3.25 1.75 6 4 C6.78375 4.598125 7.5675 5.19625 8.375 5.8125 C10.65861489 8.88659697 10.28651186 11.27534576 10 15 C6.43450163 16.18849946 3.50898083 16.16877998 -0.25 16.1875 C-2.17585938 16.20876953 -2.17585938 16.20876953 -4.140625 16.23046875 C-9.0058253 15.93993553 -13.45638483 15.54361517 -17 12 C-17.4375 9.125 -17.4375 9.125 -17 6 C-14.75 3.75 -14.75 3.75 -12 2 C-11.401875 1.5875 -10.80375 1.175 -10.1875 0.75 C-6.77751284 -0.41913846 -3.52619249 -0.55820036 0 0 Z " transform="translate(92,136)" style="fill: #C6622A;"/><path d="M0 0 C1 2 1 2 0.47094727 4.15478516 C0.17244873 5.02409668 -0.1260498 5.8934082 -0.43359375 6.7890625 C-0.72032959 7.63678223 -1.00706543 8.48450195 -1.30249023 9.35791016 C-1.67704346 10.4360498 -2.05159668 11.51418945 -2.4375 12.625 C-3.613125 16.04875 -4.78875 19.4725 -6 23 C-17.88 23 -29.76 23 -42 23 C-38.15857979 20.43905319 -34.83092699 19.18308561 -30.3125 18.1875 C-20.73357605 15.864791 -10.8527319 10.0656699 -4 3 C-2.68036291 1.98199424 -1.34990354 0.97751635 0 0 Z " transform="translate(164,202)" style="fill: #D7E8DF;"/><path d="M0 0 C0.33 0 0.66 0 1 0 C1 10.89 1 21.78 1 33 C-9.89 33 -20.78 33 -32 33 C-32 32.67 -32 32.34 -32 32 C-31.154375 31.78085938 -30.30875 31.56171875 -29.4375 31.3359375 C-19.49206308 28.55573581 -13.28873542 25.22373094 -7 17 C-6.34 17 -5.68 17 -5 17 C-3.03707012 11.41319959 -1.52601632 5.71747449 0 0 Z " transform="translate(224,192)" style="fill: #F9FBFA;"/><path d="M0 0 C0.33 0 0.66 0 1 0 C1.14695313 0.68964844 1.29390625 1.37929687 1.4453125 2.08984375 C3.83824479 12.11540488 7.94431493 18.67053316 16 25 C16 25.66 16 26.32 16 27 C16.825 27.268125 17.65 27.53625 18.5 27.8125 C22.36915561 29.12524922 26.17994294 30.55101284 30 32 C30 32.33 30 32.66 30 33 C20.1 33 10.2 33 0 33 C0 22.11 0 11.22 0 0 Z " transform="translate(0,192)" style="fill: #F9FCFA;"/><path d="M0 0 C10.89 0 21.78 0 33 0 C33 9.9 33 19.8 33 30 C31.34021744 27.51032617 30.14128935 25.27674748 28.9375 22.5625 C28.59589844 21.80066406 28.25429687 21.03882812 27.90234375 20.25390625 C27.07129913 18.1780935 26.48168632 16.18000302 26 14 C25.34 14 24.68 14 24 14 C24 13.34 24 12.68 24 12 C23.34 12 22.68 12 22 12 C21.34 11.01 20.68 10.02 20 9 C17.94074861 8.27617533 17.94074861 8.27617533 16 8 C16 7.01 16 6.02 16 5 C15.05125 4.855625 14.1025 4.71125 13.125 4.5625 C10 4 10 4 8 3 C8 2.34 8 1.68 8 1 C5.36 1 2.72 1 0 1 C0 0.67 0 0.34 0 0 Z " transform="translate(192,0)" style="fill: #FDFDFD;"/><path d="M0 0 C0.02696009 2.7708983 0.04681952 5.5415345 0.0625 8.3125 C0.07087891 9.09818359 0.07925781 9.88386719 0.08789062 10.69335938 C0.09111328 11.45068359 0.09433594 12.20800781 0.09765625 12.98828125 C0.10289307 13.68477783 0.10812988 14.38127441 0.11352539 15.09887695 C0 17 0 17 -1 20 C-1.03874921 21.66621616 -1.0450286 23.33394172 -1 25 C-1.66 25 -2.32 25 -3 25 C-3.33 22.36 -3.66 19.72 -4 17 C-4.66 17 -5.32 17 -6 17 C-10 11.58823529 -10 11.58823529 -10 9 C-10.66 9 -11.32 9 -12 9 C-12 8.01 -12 7.02 -12 6 C-12.99 6 -13.98 6 -15 6 C-15 5.01 -15 4.02 -15 3 C-10.36847894 -0.08768071 -5.42751158 0 0 0 Z " transform="translate(132,79)" style="fill: #EA8E62;"/><path d="M0 0 C2 1 2 1 2.8515625 3.28515625 C3.10679688 4.20167969 3.36203125 5.11820313 3.625 6.0625 C3.88539062 6.98160156 4.14578125 7.90070313 4.4140625 8.84765625 C4.60742188 9.55792969 4.80078125 10.26820313 5 11 C5.66 11 6.32 11 7 11 C8.00240089 12.97795176 9.00186043 14.95739442 10 16.9375 C10.556875 18.03964844 11.11375 19.14179688 11.6875 20.27734375 C13 23 13 23 13 24 C9.00169103 24.63972944 5.55183252 24.94380457 1.99609375 22.78125 C-0.53234873 20.10614612 -1.95483399 17.82123963 -2.04833984 14.05078125 C-1.75937384 9.29745284 -0.9393884 4.66298822 0 0 Z " transform="translate(104,201)" style="fill: #D7E6DB;"/><path d="M0 0 C1.5625 1.8125 1.5625 1.8125 3 4 C1.78216749 7.65349752 1.0309109 7.95599793 -2.3125 9.6875 C-10.74570903 13.42316554 -19.98586306 12.39729301 -29 12 C-25.22162788 9.48108525 -21.94910302 8.20337922 -17.5 7.25 C-11.31644345 5.7992425 -5.68621242 2.75642614 0 0 Z " transform="translate(151,213)" style="fill: #D6E7DF;"/><path d="M0 0 C2 2 2 2 2.1953125 4.6015625 C2.17210937 5.59929687 2.14890625 6.59703125 2.125 7.625 C2.10695312 8.62789062 2.08890625 9.63078125 2.0703125 10.6640625 C2.04710937 11.43492188 2.02390625 12.20578125 2 13 C0 10 0 10 0 7 C-3.63 7.33 -7.26 7.66 -11 8 C-11.33 9.98 -11.66 11.96 -12 14 C-12.66 14 -13.32 14 -14 14 C-14 16.97 -14 19.94 -14 23 C-14.33 23 -14.66 23 -15 23 C-15 16.73 -15 10.46 -15 4 C-6.79136691 -0.69064748 -6.79136691 -0.69064748 0 0 Z " transform="translate(155,105)" style="fill: #E78D60;"/><path d="M0 0 C2 1 2 1 2.625 2.5625 C3.74568807 9.84697248 3.74568807 9.84697248 3 13 C1.37774681 15.12842938 -0.35290185 16.80151069 -2.37109375 18.5546875 C-4.11644996 19.92271626 -4.11644996 19.92271626 -5 22 C-6.32 21.67 -7.64 21.34 -9 21 C-8.28911991 17.81584958 -7.2264695 14.89608297 -6 11.875 C-5.649375 11.00617188 -5.29875 10.13734375 -4.9375 9.2421875 C-4.33781649 7.80794445 -3.69522276 6.39044553 -3 5 C-2.34 5 -1.68 5 -1 5 C-0.67 3.35 -0.34 1.7 0 0 Z " transform="translate(95,203)" style="fill: #D3E7DB;"/><path d="M0 0 C0.66 0 1.32 0 2 0 C3.47265625 1.64453125 3.47265625 1.64453125 5.0625 3.8125 C5.58972656 4.52019531 6.11695312 5.22789062 6.66015625 5.95703125 C8 8 8 8 9 11 C3.06 11 -2.88 11 -9 11 C-7.03699519 7.07399037 -5.22611601 4.90350441 -2 2 C-1.34 2 -0.68 2 0 2 C0 1.34 0 0.68 0 0 Z " transform="translate(99,214)" style="fill: #38976A;"/><path d="M0 0 C-0.875 6.75 -0.875 6.75 -2 9 C-7.28 9 -12.56 9 -18 9 C-15.42695105 6.42695105 -12.75710734 5.42057375 -9.4375 3.9375 C-0.64792176 0 -0.64792176 0 0 0 Z " transform="translate(160,216)" style="fill: #F7FAF8;"/><path d="M0 0 C0.66 0 1.32 0 2 0 C2.33 0.66 2.66 1.32 3 2 C3.66 1.34 4.32 0.68 5 0 C6.26264601 4.29299643 5.62950412 6.87831311 4 11 C1.36 11 -1.28 11 -4 11 C-3.52269162 9.5410574 -3.04308958 8.08286504 -2.5625 6.625 C-2.29566406 5.81289062 -2.02882812 5.00078125 -1.75390625 4.1640625 C-1 2 -1 2 0 0 Z " transform="translate(162,93)" style="fill: #DBEBE1;"/><path d="M0 0 C0.99 0.33 1.98 0.66 3 1 C3.99 1 4.98 1 6 1 C6.66 1.33 7.32 1.66 8 2 C8.4140625 5.16015625 8.4140625 5.16015625 8.625 9.0625 C8.69976562 10.35285156 8.77453125 11.64320312 8.8515625 12.97265625 C8.90054688 13.97167969 8.94953125 14.97070312 9 16 C8.34 16 7.68 16 7 16 C6.67 13.36 6.34 10.72 6 8 C5.34 8 4.68 8 4 8 C0 2.58823529 0 2.58823529 0 0 Z " transform="translate(122,88)" style="fill: #ED936C;"/><path d="M0 0 C0.66 1.32 1.32 2.64 2 4 C2.495 3.505 2.99 3.01 3.5 2.5 C7.11630158 0.33021905 9.82231616 0.79111581 14 1 C14 1.66 14 2.32 14 3 C10.7 3.33 7.4 3.66 4 4 C3.67 5.98 3.34 7.96 3 10 C2.34 10 1.68 10 1 10 C1 12.97 1 15.94 1 19 C0.67 19 0.34 19 0 19 C0 12.73 0 6.46 0 0 Z " transform="translate(140,109)" style="fill: #AA6338;"/><path d="M0 0 C0.66 0 1.32 0 2 0 C2 0.66 2 1.32 2 2 C2.66 2 3.32 2 4 2 C3.67 3.32 3.34 4.64 3 6 C2.34 6 1.68 6 1 6 C0.938125 6.53625 0.87625 7.0725 0.8125 7.625 C-0.38027382 11.11156962 -2.56197166 13.24940393 -5 16 C-5.33 15.01 -5.66 14.02 -6 13 C-6.66 13 -7.32 13 -8 13 C-7.67 11.35 -7.34 9.7 -7 8 C-5.515 8.99 -5.515 8.99 -4 10 C-3.34 10 -2.68 10 -2 10 C-1.67 8.35 -1.34 6.7 -1 5 C-0.34 5 0.32 5 1 5 C0.67 3.35 0.34 1.7 0 0 Z " transform="translate(65,32)" style="fill: #EEF5F1;"/><path d="M0 0 C0.66 0 1.32 0 2 0 C0.82895217 3.12279422 -0.540941 6.01092291 -2.125 8.9375 C-3.8861871 12.42689318 -4.66013498 15.03919012 -4 19 C-3.01 19.66 -2.02 20.32 -1 21 C-1 21.66 -1 22.32 -1 23 C-2.65 22.67 -4.3 22.34 -6 22 C-6.65727273 13.25462113 -4.84180355 7.26270533 0 0 Z " transform="translate(88,98)" style="fill: #E49B79;"/><path d="M0 0 C0.66 0 1.32 0 2 0 C2 2.64 2 5.28 2 8 C2.66 8 3.32 8 4 8 C4 8.66 4 9.32 4 10 C4.66 10.66 5.32 11.32 6 12 C4.35 12.33 2.7 12.66 1 13 C-0.625 11.5625 -0.625 11.5625 -2 9 C-1.66417503 5.90294753 -0.88564868 2.98189626 0 0 Z " transform="translate(67,120)" style="fill: #EBC1A2;"/><path d="M0 0 C0 0.66 0 1.32 0 2 C-3.08888522 4.05925681 -3.70935927 4.2390374 -7.1875 4.125 C-9.0746875 4.063125 -9.0746875 4.063125 -11 4 C-8.36255031 -1.84006718 -6.04918208 -1.00819701 0 0 Z " transform="translate(155,45)" style="fill: #0D2818;"/><path d="M0 0 C0.99 0.33 1.98 0.66 3 1 C2.67 2.32 2.34 3.64 2 5 C3.98 4.67 5.96 4.34 8 4 C7.67 5.32 7.34 6.64 7 8 C5.35 8.33 3.7 8.66 2 9 C0.68 7.02 -0.64 5.04 -2 3 C-1.34 2.01 -0.68 1.02 0 0 Z " transform="translate(106,216)" style="fill: #CEE5D8;"/><path d="M0 0 C1 3 1 3 -0.4375 6 C-0.953125 6.99 -1.46875 7.98 -2 9 C-2.35355339 12.11785113 -2.35355339 12.11785113 0 14 C-0.99 15.485 -0.99 15.485 -2 17 C-3.32 16.67 -4.64 16.34 -6 16 C-5.28911991 12.81584958 -4.2264695 9.89608297 -3 6.875 C-2.649375 6.00617188 -2.29875 5.13734375 -1.9375 4.2421875 C-1.33781649 2.80794445 -0.69522276 1.39044553 0 0 Z " transform="translate(92,208)" style="fill: #D9EBE2;"/><path d="M0 0 C0.66 0.33 1.32 0.66 2 1 C1.67 1.66 1.34 2.32 1 3 C1.99 3.66 2.98 4.32 4 5 C-3.92 5.495 -3.92 5.495 -12 6 C-9.48617788 4.32411859 -7.17052712 3.05969689 -4.4375 1.8125 C-3.65246094 1.44769531 -2.86742188 1.08289063 -2.05859375 0.70703125 C-1.37925781 0.47371094 -0.69992188 0.24039063 0 0 Z " transform="translate(110,79)" style="fill: #D08763;"/><path d="M0 0 C0.99 1.485 0.99 1.485 2 3 C1.2575 2.979375 0.515 2.95875 -0.25 2.9375 C-2.70462279 2.99328688 -4.66109261 3.3069904 -7 4 C-6.67 3.34 -6.34 2.68 -6 2 C-7.64079242 0.35920758 -9.77768765 0.39887658 -12 0 C-12 -0.33 -12 -0.66 -12 -1 C-7.33770246 -2.11007084 -4.38744919 -1.99429508 0 0 Z " transform="translate(112,131)" style="fill: #10321C;"/><path d="M0 0 C0.33 0 0.66 0 1 0 C1 2.31 1 4.62 1 7 C0.34 7 -0.32 7 -1 7 C-0.773125 7.763125 -0.54625 8.52625 -0.3125 9.3125 C-0.209375 10.199375 -0.10625 11.08625 0 12 C-1.4375 13.8125 -1.4375 13.8125 -3 15 C-3.99 14.67 -4.98 14.34 -6 14 C-5.65066406 13.24074219 -5.30132812 12.48148438 -4.94140625 11.69921875 C-4.25884766 10.20841797 -4.25884766 10.20841797 -3.5625 8.6875 C-3.11003906 7.70136719 -2.65757813 6.71523437 -2.19140625 5.69921875 C-0.94268008 2.98434301 -0.94268008 2.98434301 0 0 Z " transform="translate(130,115)" style="fill: #172E19;"/><path d="M0 0 C1.65 0 3.3 0 5 0 C5.625 1.875 5.625 1.875 6 4 C5.34 4.66 4.68 5.32 4 6 C3.67 5.34 3.34 4.68 3 4 C2.67 4.33 2.34 4.66 2 5 C0.00041636 5.04080783 -2.00045254 5.04254356 -4 5 C-4 4.01 -4 3.02 -4 2 C-2.68 1.67 -1.36 1.34 0 1 C0 0.67 0 0.34 0 0 Z " transform="translate(70,75)" style="fill: #152D1A;"/><path d="M0 0 C5.4611399 0.35233161 5.4611399 0.35233161 8 1 C9.5 3.0625 9.5 3.0625 10 5 C9.01 5.495 9.01 5.495 8 6 C8 5.34 8 4.68 8 4 C3.71 3.67 -0.58 3.34 -5 3 C-5 2.67 -5 2.34 -5 2 C-3.35 2 -1.7 2 0 2 C0 1.34 0 0.68 0 0 Z " transform="translate(125,74)" style="fill: #172F18;"/><path d="M0 0 C3.09592835 3.5087188 4.74194623 6.49197399 6 11 C3.36 11 0.72 11 -2 11 C-1.67 10.34 -1.34 9.68 -1 9 C-0.01 9 0.98 9 2 9 C2.33 8.01 2.66 7.02 3 6 C1.02 6.99 1.02 6.99 -1 8 C-1.33 7.34 -1.66 6.68 -2 6 C-1.34 5.67 -0.68 5.34 0 5 C0 3.35 0 1.7 0 0 Z " transform="translate(111,214)" style="fill: #DFEDE4;"/><path d="M0 0 C0 0.99 0 1.98 0 3 C-0.99 3 -1.98 3 -3 3 C-3.33 3.66 -3.66 4.32 -4 5 C-6.31 4.67 -8.62 4.34 -11 4 C-7.88789178 0.88789178 -4.34860953 0 0 0 Z " transform="translate(63,207)" style="fill: #439C73;"/><path d="M0 0 C1.77049689 -0.05410687 3.54146849 -0.09284119 5.3125 -0.125 C6.29863281 -0.14820312 7.28476563 -0.17140625 8.30078125 -0.1953125 C11 0 11 0 14 2 C10.98509443 3.00496852 8.95818308 3.10335303 5.8125 3.0625 C4.91144531 3.05347656 4.01039062 3.04445313 3.08203125 3.03515625 C2.39496094 3.02355469 1.70789063 3.01195313 1 3 C0.67 2.01 0.34 1.02 0 0 Z " transform="translate(79,84)" style="fill: #263822;"/><path d="M0 0 C2.475 0.495 2.475 0.495 5 1 C4.67 3.31 4.34 5.62 4 8 C3.01 8 2.02 8 1 8 C0.67 5.36 0.34 2.72 0 0 Z " transform="translate(141,42)" style="fill: #EDF4EF;"/><path d="M0 0 C2.15357022 3.23035533 2.29592637 4.31133458 2.3125 8.0625 C2.33763672 9.37927734 2.33763672 9.37927734 2.36328125 10.72265625 C2.18345703 11.84994141 2.18345703 11.84994141 2 13 C0.515 13.99 0.515 13.99 -1 15 C-0.67 10.05 -0.34 5.1 0 0 Z " transform="translate(157,108)" style="fill: #DD9B7B;"/><path d="M0 0 C0.99 0.33 1.98 0.66 3 1 C0.89381685 3.94865641 -1.39391727 6.4837822 -4 9 C-4.99 8.67 -5.98 8.34 -7 8 C-4.69 5.36 -2.38 2.72 0 0 Z " transform="translate(217,209)" style="fill: #DBF2E9;"/><path d="M0 0 C0.33 0 0.66 0 1 0 C1.99 5.28 2.98 10.56 4 16 C3.34 15.67 2.68 15.34 2 15 C2 13.68 2 12.36 2 11 C1.34 11 0.68 11 0 11 C0 7.37 0 3.74 0 0 Z " transform="translate(155,165)" style="fill: #E1977B;"/><path d="M0 0 C2.64 0.33 5.28 0.66 8 1 C5.66420057 2.55719962 3.50676957 3.78459657 1 5 C-0.11375 5.556875 -0.11375 5.556875 -1.25 6.125 C-1.8275 6.41375 -2.405 6.7025 -3 7 C-2.690625 6.401875 -2.38125 5.80375 -2.0625 5.1875 C-0.89790296 2.91043228 -0.89790296 2.91043228 0 0 Z " transform="translate(168,196)" style="fill: #479B74;"/><path d="M0 0 C0.33 0 0.66 0 1 0 C1.125 5.75 1.125 5.75 0 8 C-1.32 8 -2.64 8 -4 8 C-3.4021799 4.65220745 -2.20964398 2.57791798 0 0 Z " transform="translate(134,160)" style="fill: #D58159;"/><path d="M0 0 C0.66 0.33 1.32 0.66 2 1 C0.14285714 9.57142857 0.14285714 9.57142857 -3 13 C-3.33 11.35 -3.66 9.7 -4 8 C-2.68 7.34 -1.36 6.68 0 6 C0 4.02 0 2.04 0 0 Z " transform="translate(136,149)" style="fill: #0E2E13;"/><path d="M0 0 C0.66 0 1.32 0 2 0 C2.53012738 1.28788008 3.0488329 2.58046678 3.5625 3.875 C3.99755859 4.95394531 3.99755859 4.95394531 4.44140625 6.0546875 C5 8 5 8 4 10 C3.01 10 2.02 10 1 10 C0.67 6.7 0.34 3.4 0 0 Z " transform="translate(63,125)" style="fill: #072711;"/><path d="M0 0 C0.33 0 0.66 0 1 0 C1.309375 1.11375 1.61875 2.2275 1.9375 3.375 C2.82326483 6.7945155 2.82326483 6.7945155 4 9 C2.02 8.34 0.04 7.68 -2 7 C-2 6.34 -2 5.68 -2 5 C-2.99 4.67 -3.98 4.34 -5 4 C-4.0409375 3.8453125 -4.0409375 3.8453125 -3.0625 3.6875 C-2.381875 3.460625 -1.70125 3.23375 -1 3 C-0.67 2.01 -0.34 1.02 0 0 Z " transform="translate(73,76)" style="fill: #D0B4A1;"/><path d="M0 0 C3.58536585 1.19512195 3.58536585 1.19512195 5.0625 4.0625 C5.371875 4.701875 5.68125 5.34125 6 6 C1.25 7.125 1.25 7.125 -1 6 C-1 5.34 -1 4.68 -1 4 C-0.34 4 0.32 4 1 4 C1 3.34 1 2.68 1 2 C0.34 1.67 -0.32 1.34 -1 1 C-0.67 0.67 -0.34 0.34 0 0 Z " transform="translate(162,56)" style="fill: #ECF6F1;"/><path d="M0 0 C0.125 6.75 0.125 6.75 -1 9 C-1.66 9 -2.32 9 -3 9 C-3 6.36 -3 3.72 -3 1 C-1 0 -1 0 0 0 Z " transform="translate(77,215)" style="fill: #299669;"/><path d="M0 0 C0.33 1.32 0.66 2.64 1 4 C-2.375 4.625 -2.375 4.625 -6 5 C-6.66 4.34 -7.32 3.68 -8 3 C-2.25 0 -2.25 0 0 0 Z " transform="translate(149,105)" style="fill: #CC835A;"/><path d="M0 0 C2 1.375 2 1.375 4 3 C4 3.66 4 4.32 4 5 C1.03 5 -1.94 5 -5 5 C-4.67 4.34 -4.34 3.68 -4 3 C-2.68 3 -1.36 3 0 3 C0 2.01 0 1.02 0 0 Z " transform="translate(104,220)" style="fill: #3D986E;"/><path d="M0 0 C5.53846154 -0.36923077 5.53846154 -0.36923077 7.875 1.5 C8.24625 1.995 8.6175 2.49 9 3 C4.375 5.125 4.375 5.125 1 4 C1.33 3.34 1.66 2.68 2 2 C1.34 1.34 0.68 0.68 0 0 Z " transform="translate(96,177)" style="fill: #0E2C12;"/><path d="M0 0 C2 3 2 3 1.625 5.1875 C1.41875 5.785625 1.2125 6.38375 1 7 C-0.65 6.67 -2.3 6.34 -4 6 C-3.0022242 3.00667261 -2.2477975 2.05233685 0 0 Z " transform="translate(53,65)" style="fill: #EDF6F0;"/><path d="M0 0 C1.65 0.33 3.3 0.66 5 1 C5.33 2.32 5.66 3.64 6 5 C3.69 4.67 1.38 4.34 -1 4 C-0.67 2.68 -0.34 1.36 0 0 Z " transform="translate(80,33)" style="fill: #0C3522;"/><path d="M0 0 C2.31 0.33 4.62 0.66 7 1 C7 1.99 7 2.98 7 4 C6.01 4.66 5.02 5.32 4 6 C3.71125 5.195625 3.4225 4.39125 3.125 3.5625 C2.26737432 0.8673532 2.26737432 0.8673532 0 0 Z " transform="translate(86,33)" style="fill: #0E2B1C;"/><path d="M0 0 C0.556875 0.2475 1.11375 0.495 1.6875 0.75 C-0.5625 2.8125 -0.5625 2.8125 -3.3125 4.75 C-5.625 4.5 -5.625 4.5 -7.3125 3.75 C-2.88173077 -0.31153846 -2.88173077 -0.31153846 0 0 Z " transform="translate(122.3125,130.25)" style="fill: #DEB3A0;"/><path d="M0 0 C1.32 0.33 2.64 0.66 4 1 C3.34 2.65 2.68 4.3 2 6 C0.68 5.67 -0.64 5.34 -2 5 C-1.34 3.35 -0.68 1.7 0 0 Z " transform="translate(123,123)" style="fill: #E4B59C;"/><path d="M0 0 C2.97 0 5.94 0 9 0 C7.02 0.99 7.02 0.99 5 2 C1.83333333 3.83333333 1.83333333 3.83333333 0 7 C0 4.69 0 2.38 0 0 Z " transform="translate(141,109)" style="fill: #EF9066;"/><path d="M0 0 C0.33 0.99 0.66 1.98 1 3 C0 4 0 4 -3.5625 4.0625 C-4.696875 4.041875 -5.83125 4.02125 -7 4 C-7 3.34 -7 2.68 -7 2 C-2.25 0 -2.25 0 0 0 Z " transform="translate(103,35)" style="fill: #10311F;"/><path d="M0 0 C2.625 -0.1875 2.625 -0.1875 5 0 C5.33 1.32 5.66 2.64 6 4 C3.36 3.67 0.72 3.34 -2 3 C-1.34 2.01 -0.68 1.02 0 0 Z " transform="translate(124,32)" style="fill: #ECF4ED;"/><path d="M0 0 C1.65 0 3.3 0 5 0 C4.67 0.99 4.34 1.98 4 3 C1.4375 4.1875 1.4375 4.1875 -1 5 C-1.33 4.01 -1.66 3.02 -2 2 C-1.34 2 -0.68 2 0 2 C0 1.34 0 0.68 0 0 Z " transform="translate(118,169)" style="fill: #132F17;"/><path d="M0 0 C0.33 0.66 0.66 1.32 1 2 C1.99 2.33 2.98 2.66 4 3 C4 3.66 4 4.32 4 5 C5.32 5.33 6.64 5.66 8 6 C6.35 6.33 4.7 6.66 3 7 C0 3.375 0 3.375 0 0 Z " transform="translate(65,126)" style="fill: #CFA994;"/><path d="M0 0 C0.99 0.33 1.98 0.66 3 1 C2.34 2.65 1.68 4.3 1 6 C-0.32 5.67 -1.64 5.34 -3 5 C-3 3 -3 3 -1.5 1.375 C-1.005 0.92125 -0.51 0.4675 0 0 Z " transform="translate(156,100)" style="fill: #12331F;"/><path d="M0 0 C0.33 0 0.66 0 1 0 C1 2.64 1 5.28 1 8 C-0.32 8.33 -1.64 8.66 -3 9 C-2.01 6.03 -1.02 3.06 0 0 Z " transform="translate(161,95)" style="fill: #CCDFD4;"/><path d="M0 0 C2.31 0.33 4.62 0.66 7 1 C7 1.66 7 2.32 7 3 C4.69 3.33 2.38 3.66 0 4 C0 2.68 0 1.36 0 0 Z " transform="translate(118,35)" style="fill: #052414;"/><path d="M0 0 C-0.99 0.66 -1.98 1.32 -3 2 C-3 1.34 -3 0.68 -3 0 C-3.66 0 -4.32 0 -5 0 C-4.67 0.99 -4.34 1.98 -4 3 C-4.99 3.495 -4.99 3.495 -6 4 C-8 2 -8 2 -8 0 C-5.13822943 -1.43088528 -3.06624227 -0.59991697 0 0 Z " transform="translate(26,217)" style="fill: #B6D4C3;"/><path d="M0 0 C2 4 2 4 1.125 6.75 C0.75375 7.4925 0.3825 8.235 0 9 C-0.66 9 -1.32 9 -2 9 C-1.34 6.03 -0.68 3.06 0 0 Z " transform="translate(164,204)" style="fill: #459F77;"/><path d="M0 0 C-0.99 0.495 -0.99 0.495 -2 1 C-2 1.66 -2 2.32 -2 3 C-3.98 3 -5.96 3 -8 3 C-7.34 2.67 -6.68 2.34 -6 2 C-6 1.34 -6 0.68 -6 0 C-3.50907189 -1.24546405 -2.58919267 -0.7767578 0 0 Z " transform="translate(38,222)" style="fill: #4EA37B;"/><path d="M0 0 C-3.8503105 2.56687367 -5.58569763 1.83288724 -10 1 C-6.1496895 -1.56687367 -4.41430237 -0.83288724 0 0 Z " transform="translate(130,196)" style="fill: #E59871;"/><path d="M0 0 C7.50769231 -0.36923077 7.50769231 -0.36923077 10 1.5 C10.495 2.2425 10.495 2.2425 11 3 C9.02 3 7.04 3 5 3 C5 2.67 5 2.34 5 2 C3.35 1.67 1.7 1.34 0 1 C0 0.67 0 0.34 0 0 Z " transform="translate(106,84)" style="fill: #F0AB8D;"/></svg>