<svg id="svg" version="1.1" xmlns="http://www.w3.org/2000/svg" style="display: block;" viewBox="0 0 194 206"><path d="M0 0 C64.02 0 128.04 0 194 0 C194 67.98 194 135.96 194 206 C129.98 206 65.96 206 0 206 C0 138.02 0 70.04 0 0 Z " transform="translate(0,0)" style="fill: #AED1BD;"/><path d="M0 0 C64.02 0 128.04 0 194 0 C194 33.99 194 67.98 194 103 C191.03 102.01 191.03 102.01 188 101 C188 100.34 188 99.68 188 99 C186.2365625 99.309375 186.2365625 99.309375 184.4375 99.625 C181.44312089 100.15032967 179.7903568 99.93868804 176.81445312 99.06835938 C173.03018607 98.00845457 169.4317476 97.41474037 165.53515625 96.9296875 C164.85698349 96.84373322 164.17881073 96.75777893 163.48008728 96.66921997 C161.34149759 96.39934837 159.20206114 96.13704617 157.0625 95.875 C155.60084843 95.69190874 154.13925914 95.50831953 152.67773438 95.32421875 C149.11919058 94.87705975 145.55984696 94.43667795 142 94 C142.19698486 93.41049561 142.39396973 92.82099121 142.59692383 92.21362305 C143.14068925 90.58465696 143.68336902 88.95532817 144.22509766 87.32568359 C144.79422123 85.61759563 145.36987646 83.91168038 145.94921875 82.20703125 C148.65856849 73.41956358 149.87765278 63.64748708 146.3125 54.9375 C142.35338807 47.48829985 136.26909549 43.63091051 128.375 41.1875 C125.84431327 39.92215664 125.03026101 38.93667627 123.3125 36.75 C118.42756383 30.70378702 111.42541939 27.03359476 104 25 C92.55658946 23.95599217 82.99676957 25.40394301 73.59375 32.109375 C73.0678125 32.40328125 72.541875 32.6971875 72 33 C71.34 32.67 70.68 32.34 70 32 C72.31 30.02 74.62 28.04 77 26 C71.73496235 23.36748117 67.38142623 22.99130336 61.6953125 24.6875 C59.36232214 25.65621572 57.20053649 26.76048212 55 28 C54.30777344 28.36609375 53.61554687 28.7321875 52.90234375 29.109375 C45.93619171 33.45818668 42.60302834 40.4810115 40 48 C39.04715517 53.61323332 38.46310093 59.66556573 41.875 64.5625 C45.94020232 67.73335781 50.13282817 69.39336075 55 71 C54.74605469 72.01835938 54.49210937 73.03671875 54.23046875 74.0859375 C53.8818468 75.51538983 53.53427486 76.94509846 53.1875 78.375 C53.00155273 79.12998779 52.81560547 79.88497559 52.62402344 80.6628418 C51.64631651 84.76490493 50.8481604 88.80714521 50.34765625 92.99609375 C50.24493408 93.80191895 50.14221191 94.60774414 50.03637695 95.43798828 C49.8490123 96.99153359 49.69135079 98.54902138 49.56713867 100.10888672 C49.18506568 103.16339979 48.74495854 105.41170926 46.265625 107.36962891 C41.54411997 109.83939005 37.26963476 110.62359752 32 111 C32 111.66 32 112.32 32 113 C30.08396843 113.64771508 28.16714887 114.29309948 26.25 114.9375 C24.64898438 115.47697266 24.64898438 115.47697266 23.015625 116.02734375 C20.68264275 116.77982119 18.38625005 117.44977244 16 118 C16 118.66 16 119.32 16 120 C15.22914062 120.33773437 14.45828125 120.67546875 13.6640625 121.0234375 C12.66117188 121.46945313 11.65828125 121.91546875 10.625 122.375 C9.62726562 122.81585938 8.62953125 123.25671875 7.6015625 123.7109375 C4.91977521 124.86712444 4.91977521 124.86712444 3 127 C2.01 127 1.02 127 0 127 C0 85.09 0 43.18 0 0 Z " transform="translate(0,0)" style="fill: #E4F0E9;"/><path d="M0 0 C0.639375 0.33 1.27875 0.66 1.9375 1 C1.1125 1.804375 0.2875 2.60875 -0.5625 3.4375 C-3.17888731 5.52263018 -3.17888731 5.52263018 -3.0625 7 C-2.25425781 6.57847656 -1.44601563 6.15695313 -0.61328125 5.72265625 C0.45535156 5.17480469 1.52398437 4.62695312 2.625 4.0625 C4.20861328 3.24458984 4.20861328 3.24458984 5.82421875 2.41015625 C13.59275205 -1.1085897 23.00156508 -1.26350487 31.203125 0.8359375 C39.30912069 3.93284355 46.09093992 8.73015988 50.9375 16 C53.37659263 17.05611486 53.37659263 17.05611486 56.1875 17.875 C62.88715309 20.20455258 66.90684189 22.65207684 70.25 29.125 C74.51865989 38.38276871 73.91700947 48.68639247 70.9375 58.3125 C69.19480929 62.99598129 67.13308658 67.51336656 64.9375 72 C64.36902344 71.97679688 63.80054688 71.95359375 63.21484375 71.9296875 C62.44269531 71.91164063 61.67054688 71.89359375 60.875 71.875 C60.12089844 71.85179688 59.36679688 71.82859375 58.58984375 71.8046875 C55.20087052 72.0542437 52.17355067 72.99393284 48.9375 74 C48.95321045 74.62229492 48.9689209 75.24458984 48.98510742 75.88574219 C49.90425373 118.15871598 49.90425373 118.15871598 40.27734375 130.05078125 C28.14075885 142.09382792 8.43660516 150.32295874 -8.625 150.5 C-15.19736918 150.44618326 -20.48129085 149.44168433 -25.375 144.8125 C-29.36124742 138.1687543 -29.34210229 131.11552389 -29.2578125 123.59375 C-29.25356766 122.14579041 -29.25356766 122.14579041 -29.24923706 120.6685791 C-29.23812124 117.61225522 -29.21303285 114.55623399 -29.1875 111.5 C-29.17745908 109.41667093 -29.16833518 107.33333722 -29.16015625 105.25 C-29.13821011 100.16655163 -29.10374017 95.08332697 -29.0625 90 C-25.81517068 91.62366466 -25.36094864 94.75387839 -24.0625 98 C-20.53999393 97.41943124 -20.53999393 97.41943124 -17.30761719 95.98193359 C-12.69806918 93.96588291 -7.33918061 94.62821669 -2.3828125 94.62939453 C-0.33247462 94.6250424 1.71567062 94.58876164 3.765625 94.55078125 C11.39319189 94.52825891 16.43418071 94.97780489 22.9375 99 C24.93501159 99.80936143 24.93501159 99.80936143 26.9375 100 C35.18614674 93.81351494 37.25064014 82.42293106 39.9375 73 C40.20771973 72.10099976 40.20771973 72.10099976 40.48339844 71.18383789 C41.04965429 68.46063432 41.04934759 65.92212711 41.03515625 63.140625 C41.03193359 62.02558594 41.02871094 60.91054687 41.02539062 59.76171875 C41.01701172 58.60285156 41.00863281 57.44398437 41 56.25 C40.99548828 55.07566406 40.99097656 53.90132812 40.98632812 52.69140625 C40.97455094 49.79421928 40.95810326 46.89713546 40.9375 44 C29.33429005 43.07468073 20.70704276 44.55944632 10.05859375 49.2734375 C3.01835159 52.36086924 -4.36449055 54.08646605 -12.0625 53 C-15.65307418 50.90549839 -17.54361744 48.86624652 -19.0625 45 C-19.3925 45.33 -19.7225 45.66 -20.0625 46 C-24.19969492 46.40560735 -26.5431198 46.27496599 -30.25 44.3125 C-33.87870087 41.3289015 -36.64689691 38.85364077 -37.69921875 34.16015625 C-37.86391451 24.11371516 -34.78190258 15.61884029 -28.3203125 7.92578125 C-20.68136712 0.93808237 -10.150773 -3.31453812 0 0 Z " transform="translate(76.0625,24)" style="fill: #022C19;"/><path d="M0 0 C8.4772987 -0.30098834 16.51123955 0.60940837 24.875 1.9375 C26.07125 2.11990234 27.2675 2.30230469 28.5 2.49023438 C37.18657971 3.82625754 37.18657971 3.82625754 40.62548828 4.56079102 C43.25308181 5.12125526 43.25308181 5.12125526 47 5 C47 5.66 47 6.32 47 7 C47.61875 7.144375 48.2375 7.28875 48.875 7.4375 C51 8 51 8 53 9 C53 42.99 53 76.98 53 112 C17.36 112 -18.28 112 -55 112 C-54.34 107.05 -53.68 102.1 -53 97 C-51.62070313 96.78085938 -50.24140625 96.56171875 -48.8203125 96.3359375 C-29.19727909 93.07837894 -29.19727909 93.07837894 -10.7578125 85.8203125 C-9 85 -9 85 -5 85 C-5 84.34 -5 83.68 -5 83 C-3.02 82.01 -1.04 81.02 1 80 C0.59539533 73.72862756 -0.40927604 67.79616158 -1.8125 61.6875 C-3.39737185 54.74527317 -4.91829298 47.79582428 -6.3125 40.8125 C-6.49594971 39.94004639 -6.67939941 39.06759277 -6.8684082 38.16870117 C-7.86011789 33.11034576 -8.22979418 29.03883238 -7 24 C-5.125 22.8125 -5.125 22.8125 -3 22 C-0.6277602 19.59337991 -0.02846683 18.27145152 0.328125 14.87109375 C0.30234375 13.73800781 0.2765625 12.60492188 0.25 11.4375 C0.23453125 10.30183594 0.2190625 9.16617188 0.203125 7.99609375 C0.12262038 4.94897229 0.12262038 4.94897229 -1 2 C-0.67 1.34 -0.34 0.68 0 0 Z " transform="translate(141,94)" style="fill: #AFD1BD;"/><path d="M0 0 C0.33 0 0.66 0 1 0 C1 3.63 1 7.26 1 11 C5.80228357 11.33504304 7.97097636 10.47939916 12 8 C14.8125 7.8125 14.8125 7.8125 17 8 C16.505 7.505 16.505 7.505 16 7 C17 5 17 5 20.0625 3.875 C21.031875 3.58625 22.00125 3.2975 23 3 C23.92091738 5.57856865 24.18506902 6.5943287 23.0234375 9.140625 C22.68570313 9.75421875 22.34796875 10.3678125 22 11 C21.14728516 10.96519531 21.14728516 10.96519531 20.27734375 10.9296875 C19.11912109 10.90261719 19.11912109 10.90261719 17.9375 10.875 C16.80634766 10.84019531 16.80634766 10.84019531 15.65234375 10.8046875 C12.26337052 11.0542437 9.23605067 11.99393284 6 13 C6.01571045 13.62229492 6.0314209 14.24458984 6.04760742 14.88574219 C6.96675373 57.15871598 6.96675373 57.15871598 -2.66015625 69.05078125 C-14.79674115 81.09382792 -34.50089484 89.32295874 -51.5625 89.5 C-58.13486918 89.44618326 -63.41879085 88.44168433 -68.3125 83.8125 C-72.29874742 77.1687543 -72.27960229 70.11552389 -72.1953125 62.59375 C-72.1924826 61.6284436 -72.18965271 60.66313721 -72.18673706 59.6685791 C-72.17562124 56.61225522 -72.15053285 53.55623399 -72.125 50.5 C-72.11495908 48.41667093 -72.10583518 46.33333722 -72.09765625 44.25 C-72.07571011 39.16655163 -72.04124017 34.08332697 -72 29 C-68.75267068 30.62366466 -68.29844864 33.75387839 -67 37 C-63.47749393 36.41943124 -63.47749393 36.41943124 -60.24511719 34.98193359 C-55.63556918 32.96588291 -50.27668061 33.62821669 -45.3203125 33.62939453 C-43.26997462 33.6250424 -41.22182938 33.58876164 -39.171875 33.55078125 C-31.54430811 33.52825891 -26.50331929 33.97780489 -20 38 C-18.00248841 38.80936143 -18.00248841 38.80936143 -16 39 C-5.09785567 30.82339175 -2.94816804 12.39570652 0 0 Z " transform="translate(119,85)" style="fill: #032C18;"/><path d="M0 0 C0.3403125 0.8353125 0.3403125 0.8353125 0.6875 1.6875 C2.50597709 4.89148344 4.02286763 6.76715073 7 9 C16.95661009 11.46470112 29.19792531 5.779003 38.1875 1.6875 C44.90307682 -1.14011129 53.0398144 -1.06788123 60 1 C60.38130153 5.66413474 60.70629095 10.32954459 61 15 C61.06832031 15.94101563 61.13664062 16.88203125 61.20703125 17.8515625 C61.68958222 29.68299735 57.76174506 45.0235003 50.5625 54.5625 C48 57 48 57 45.5625 58.125 C41.88338759 57.9455311 39.91406867 56.15387684 37 54 C31.92561817 52.30853939 26.59946314 52.77473871 21.28588867 52.75976562 C19.20515627 52.75008217 17.12542168 52.71905634 15.04492188 52.6875 C13.71094333 52.68096693 12.37695776 52.67571765 11.04296875 52.671875 C9.83664795 52.6625293 8.63032715 52.65318359 7.38745117 52.64355469 C3.65112525 53.03671042 1.27196296 54.21685266 -2 56 C-4.25 55.875 -4.25 55.875 -6 55 C-8.20914 51.68629 -8.22481553 50.6553979 -8.125 46.8125 C-8.10695312 45.91144531 -8.08890625 45.01039062 -8.0703125 44.08203125 C-8.04710937 43.39496094 -8.02390625 42.70789063 -8 42 C-8.66 42 -9.32 42 -10 42 C-6.31706847 12.63413693 -6.31706847 12.63413693 -2 4 C-2.99 3.67 -3.98 3.34 -5 3 C-4.360625 2.87625 -3.72125 2.7525 -3.0625 2.625 C-2.0415625 2.315625 -2.0415625 2.315625 -1 2 C-0.67 1.34 -0.34 0.68 0 0 Z " transform="translate(57,67)" style="fill: #EFBCA3;"/><path d="M0 0 C2.35677414 2.29620284 2.96178397 3.75350659 3.46875 7.0234375 C3.56353582 17.18921621 3.56353582 17.18921621 0.6875 20.8125 C-2 23 -2 23 -5 23 C-5.32823699 29.46444516 -4.08088504 35.37904707 -2.75 41.6875 C-2.52618652 42.78223633 -2.30237305 43.87697266 -2.07177734 45.00488281 C-0.98561634 50.31175309 0.12927671 55.6121577 1.2578125 60.91015625 C1.44698242 61.81483643 1.63615234 62.7195166 1.83105469 63.65161133 C2.18494165 65.34210458 2.54713962 67.03088649 2.91894531 68.7175293 C3.7693547 72.79334578 4.25863702 75.91351617 3 80 C1.02 80.66 -0.96 81.32 -3 82 C-3 82.66 -3 83.32 -3 84 C-34.72004168 96.3584578 -34.72004168 96.3584578 -51 96 C-50.95875 97.175625 -50.9175 98.35125 -50.875 99.5625 C-50.86016365 103.72409674 -51.68829222 107.06487667 -53 111 C-54.32 111 -55.64 111 -57 111 C-57.08636719 110.04738281 -57.17273438 109.09476562 -57.26171875 108.11328125 C-57.40222656 106.85902344 -57.54273437 105.60476562 -57.6875 104.3125 C-57.81511719 103.07113281 -57.94273438 101.82976562 -58.07421875 100.55078125 C-59.16976632 96.34887094 -60.73662331 94.77916623 -64 92 C-67.73894543 88.26105457 -67.68747025 84.04358359 -68 79 C-66.58460937 78.65388672 -66.58460937 78.65388672 -65.140625 78.30078125 C-49.81695255 74.45180223 -31.17998502 68.87343939 -21 56 C-13.39354117 40.2900694 -14.52501397 20.03947791 -14 3 C-9.03980842 0.76316719 -5.60301216 -0.75425164 0 0 Z " transform="translate(139,95)" style="fill: #E78F64;"/><path d="M0 0 C1.06129426 2.24250878 2.09881233 4.49149089 3.125 6.75 C3.42792969 7.38421875 3.73085937 8.0184375 4.04296875 8.671875 C4.8828125 10.546875 4.8828125 10.546875 6 14 C5.34 15.32 4.68 16.64 4 18 C2.35 22.95 0.7 27.9 -1 33 C-20.47 33 -39.94 33 -60 33 C-59.34 28.05 -58.68 23.1 -58 18 C-56.62070313 17.78085938 -55.24140625 17.56171875 -53.8203125 17.3359375 C-34.19727909 14.07837894 -34.19727909 14.07837894 -15.7578125 6.8203125 C-14 6 -14 6 -10 6 C-10 5.34 -10 4.68 -10 4 C-8.71086513 3.32845067 -7.41859796 2.66291141 -6.125 2 C-5.40570313 1.62875 -4.68640625 1.2575 -3.9453125 0.875 C-2 0 -2 0 0 0 Z " transform="translate(146,173)" style="fill: #FCFCFB;"/><path d="M0 0 C0.33 0 0.66 0 1 0 C1 13.53 1 27.06 1 41 C-12.86 41 -26.72 41 -41 41 C-41 40.67 -41 40.34 -41 40 C-40.18917969 39.79246094 -39.37835938 39.58492187 -38.54296875 39.37109375 C-24.51308388 35.46755186 -13.90205409 28.65397146 -6.25 16.1875 C-3.31845757 10.96342551 -1.3534358 5.82621888 0 0 Z " transform="translate(193,165)" style="fill: #000000;"/><path d="M0 0 C1.61102614 3.22205228 2.90350921 6.33510084 4.1875 9.6875 C9.97265923 23.59218095 20.28636836 32.26154184 34 38 C36.67965991 38.85897074 39.23156513 39.46760868 42 40 C42 40.33 42 40.66 42 41 C28.14 41 14.28 41 0 41 C0 27.47 0 13.94 0 0 Z " transform="translate(0,165)" style="fill: #000000;"/><path d="M0 0 C13.86 0 27.72 0 42 0 C42 13.53 42 27.06 42 41 C40.38897386 37.77794772 39.09649079 34.66489916 37.8125 31.3125 C32.28078749 18.01698047 22.07967746 8.78239978 9 3 C5.98016585 2.08794026 3.12224226 1.51184299 0 1 C0 0.67 0 0.34 0 0 Z " transform="translate(152,0)" style="fill: #000000;"/><path d="M0 0 C13.86 0 27.72 0 42 0 C42 0.33 42 0.66 42 1 C41.34515625 1.13535156 40.6903125 1.27070313 40.015625 1.41015625 C27.25056357 4.42112413 16.52510448 10.94626907 9.0625 21.82421875 C5.28176828 27.97578432 2.63402926 33.96589311 1 41 C0.67 41 0.34 41 0 41 C0 27.47 0 13.94 0 0 Z " transform="translate(0,0)" style="fill: #000000;"/><path d="M0 0 C0.66 0 1.32 0 2 0 C2.18175781 0.68707031 2.36351563 1.37414062 2.55078125 2.08203125 C2.92783203 3.43361328 2.92783203 3.43361328 3.3125 4.8125 C3.67794922 6.15248047 3.67794922 6.15248047 4.05078125 7.51953125 C5.03041456 10.07947838 6.03370661 11.1658944 8 13 C8 13.66 8 14.32 8 15 C8.9590625 15.37125 8.9590625 15.37125 9.9375 15.75 C12 17 12 17 13 21 C13 24.3 13 27.6 13 31 C6.4 31 -0.2 31 -7 31 C-9.25690362 24.22928915 -10.17868375 18.839131 -7.15869141 12.13134766 C-4.99107349 7.95161259 -2.53935279 3.96231585 0 0 Z " transform="translate(69,175)" style="fill: #FAFCF9;"/><path d="M0 0 C0.38130153 4.66413474 0.70629095 9.32954459 1 14 C1.10248047 15.41152344 1.10248047 15.41152344 1.20703125 16.8515625 C1.53573547 24.9109031 -0.37191441 32.41308139 -3 40 C-3.66 40.66 -4.32 41.32 -5 42 C-5 34.08 -5 26.16 -5 18 C-5.66 18 -6.32 18 -7 18 C-10 12.25 -10 12.25 -10 10 C-10.99 10 -11.98 10 -13 10 C-13 9.34 -13 8.68 -13 8 C-20.26 7.67 -27.52 7.34 -35 7 C-24.60843717 0.07229145 -12.30496776 -3.55346324 0 0 Z " transform="translate(117,68)" style="fill: #E69066;"/><path d="M0 0 C8.82641212 1.54407458 17.4905654 3.1157926 26 6 C18.49452129 14.20911734 8.79029507 19.09511668 -2.390625 20.24609375 C-4.3125 20.25 -4.3125 20.25 -7 20 C-5.41429736 12.79226072 -3.60251779 6.45968707 0 0 Z " transform="translate(152,186)" style="fill: #39976C;"/><path d="M0 0 C0 3.15081975 -0.27898465 4.41847698 -2 7 C-2.66 7.144375 -3.32 7.28875 -4 7.4375 C-4.66 7.623125 -5.32 7.80875 -6 8 C-6.42539063 9.13695312 -6.42539063 9.13695312 -6.859375 10.296875 C-10.57085622 19.09257708 -23.69803439 24.888363 -32 29 C-34.72921852 29.96560071 -37.13558913 30.54169426 -40 31 C-42.45324397 26.70682305 -43.16494341 23.90706652 -43 19 C-42.05640625 18.76925781 -41.1128125 18.53851563 -40.140625 18.30078125 C-26.02623697 14.75554864 -11.03430129 9.89282185 0 0 Z " transform="translate(114,155)" style="fill: #CB652C;"/><path d="M0 0 C3.3125 1.8125 3.3125 1.8125 6 4 C6.8971875 4.61875 6.8971875 4.61875 7.8125 5.25 C9.82413564 8.21451569 9.71104815 11.47478745 10 15 C1.41222684 17.00921485 -8.21571022 17.52574987 -16 13 C-17 12 -17 12 -17.625 9.3125 C-16.88164902 5.37273979 -16.15548287 4.90757438 -13 2.625 C-8.29015473 -0.18464082 -5.41414538 -0.88756482 0 0 Z " transform="translate(76,126)" style="fill: #CC642A;"/><path d="M0 0 C0.50615298 1.26839526 1.00469099 2.53983102 1.5 3.8125 C1.7784375 4.52019531 2.056875 5.22789062 2.34375 5.95703125 C3 8 3 8 3 11 C-18.81378535 11.61916858 -18.81378535 11.61916858 -27 8 C-23.49242165 4.9093431 -19.57850407 3.65453356 -15.1875 2.3125 C-14.50107422 2.08755859 -13.81464844 1.86261719 -13.10742188 1.63085938 C-8.5742649 0.21987674 -4.74391524 -0.22944427 0 0 Z " transform="translate(59,195)" style="fill: #38976C;"/><path d="M0 0 C0.33 0.66 0.66 1.32 1 2 C9.51013141 5.28609035 20.97645708 3.43866125 29 0 C31.72598747 -0.24136347 34.25720164 -0.14693563 37 0 C28.4229799 5.7180134 15.14178689 7.24325319 5 7 C5.04125 8.175625 5.0825 9.35125 5.125 10.5625 C5.13983635 14.72409674 4.31170778 18.06487667 3 22 C1.68 22 0.36 22 -1 22 C-1.12955078 20.57107422 -1.12955078 20.57107422 -1.26171875 19.11328125 C-1.40222656 17.85902344 -1.54273437 16.60476562 -1.6875 15.3125 C-1.81511719 14.07113281 -1.94273438 12.82976562 -2.07421875 11.55078125 C-3.16041159 7.38475047 -4.75435162 5.74228449 -8 3 C-7.67 2.34 -7.34 1.68 -7 1 C-4.67843403 0.59270772 -2.3431213 0.25561323 0 0 Z " transform="translate(83,184)" style="fill: #E6916A;"/><path d="M0 0 C0.99 0 1.98 0 3 0 C3.99 2.31 4.98 4.62 6 7 C6.99 7 7.98 7 9 7 C9 7.99 9 8.98 9 10 C12.04389963 9.57505956 15.08448979 9.13555172 18.125 8.6875 C18.9809375 8.56955078 19.836875 8.45160156 20.71875 8.33007812 C25.70120851 7.58270935 29.54223829 6.4788488 34 4 C34.66 4 35.32 4 36 4 C36 3.34 36 2.68 36 2 C38.91824244 0.33325679 40.97594379 -0.2432008 44.328125 -0.1953125 C45.12734375 -0.18886719 45.9265625 -0.18242188 46.75 -0.17578125 C47.575 -0.15902344 48.4 -0.14226562 49.25 -0.125 C50.09046875 -0.11597656 50.9309375 -0.10695313 51.796875 -0.09765625 C53.86470604 -0.07415817 55.93238995 -0.03828908 58 0 C58.495 1.485 58.495 1.485 59 3 C58.12601562 2.91878906 57.25203125 2.83757812 56.3515625 2.75390625 C46.44697653 2.24518014 39.23656389 4.32733618 30.19140625 8.2734375 C23.10837911 11.32345058 15.72860605 13.09078433 8 12 C4.40942582 9.90549839 2.51888256 7.86624652 1 4 C0.67 4.33 0.34 4.66 0 5 C-4.23314767 5.23961213 -7.36736489 5.32488647 -11 3 C-11 2.34 -11 1.68 -11 1 C-7.37 1.33 -3.74 1.66 0 2 C0 1.34 0 0.68 0 0 Z " transform="translate(56,65)" style="fill: #192E1D;"/><path d="M0 0 C0.33 0 0.66 0 1 0 C1 3.63 1 7.26 1 11 C5.80228357 11.33504304 7.97097636 10.47939916 12 8 C14.8125 7.8125 14.8125 7.8125 17 8 C16.67 7.67 16.34 7.34 16 7 C17 5 17 5 20.0625 3.875 C21.031875 3.58625 22.00125 3.2975 23 3 C23.92091738 5.57856865 24.18506902 6.5943287 23.0234375 9.140625 C22.51683594 10.06101562 22.51683594 10.06101562 22 11 C21.43152344 10.97679688 20.86304688 10.95359375 20.27734375 10.9296875 C19.11912109 10.90261719 19.11912109 10.90261719 17.9375 10.875 C16.80634766 10.84019531 16.80634766 10.84019531 15.65234375 10.8046875 C12.26337052 11.0542437 9.23605067 11.99393284 6 13 C6.02356567 13.93344238 6.02356567 13.93344238 6.04760742 14.88574219 C6.36011335 29.25837786 5.627572 42.86116017 3 57 C2.67 57 2.34 57 2 57 C2.0721875 56.30261719 2.144375 55.60523438 2.21875 54.88671875 C3.35633499 41.94668946 3.09127586 28.97802253 3 16 C2.34 16 1.68 16 1 16 C0.67 16.66 0.34 17.32 0 18 C0.226875 17.401875 0.45375 16.80375 0.6875 16.1875 C0.790625 15.465625 0.89375 14.74375 1 14 C0.4946875 13.5771875 -0.010625 13.154375 -0.53125 12.71875 C-2 11 -2 11 -1.85546875 8.30078125 C-1.63503906 7.31464844 -1.41460937 6.32851562 -1.1875 5.3125 C-0.97480469 4.31863281 -0.76210937 3.32476562 -0.54296875 2.30078125 C-0.36378906 1.54152344 -0.18460937 0.78226562 0 0 Z " transform="translate(119,85)" style="fill: #2D3218;"/><path d="M0 0 C3.3125 1.8125 3.3125 1.8125 6 4 C6.8971875 4.61875 6.8971875 4.61875 7.8125 5.25 C9.82413564 8.21451569 9.71104815 11.47478745 10 15 C1.41222684 17.00921485 -8.21571022 17.52574987 -16 13 C-17 12 -17 12 -17.625 9.3125 C-16.88164902 5.37273979 -16.15548287 4.90757438 -13 2.625 C-8.29015473 -0.18464082 -5.41414538 -0.88756482 0 0 Z M-15 6 C-15.41666667 9 -15.41666667 9 -15 12 C-11.44362352 15.55637648 -6.82348811 15.15673796 -2 15.1875 C-0.989375 15.20167969 0.02125 15.21585938 1.0625 15.23046875 C4.0885919 14.99304931 6.26227757 14.27324223 9 13 C7.75023244 9.34683329 7.32901247 8.21934164 4 6 C1.4582293 5.83328148 1.4582293 5.83328148 -1 6 C-1.66 6 -2.32 6 -3 6 C-2.67 4.68 -2.34 3.36 -2 2 C-7.19265239 2 -10.68630028 3.12420019 -15 6 Z " transform="translate(76,126)" style="fill: #B6652F;"/><path d="M0 0 C1.74991334 -0.02715383 3.49994945 -0.04646551 5.25 -0.0625 C6.71179688 -0.07990234 6.71179688 -0.07990234 8.203125 -0.09765625 C10.65758678 -0.01195577 12.66168914 0.29293934 15 1 C15.38130153 5.66413474 15.70629095 10.32954459 16 15 C16.10248047 16.41152344 16.10248047 16.41152344 16.20703125 17.8515625 C16.53573547 25.9109031 14.62808559 33.41308139 12 41 C11.34 41.66 10.68 42.32 10 43 C9.9419034 39.0833957 9.90637107 35.16690237 9.875 31.25 C9.85824219 30.13882813 9.84148437 29.02765625 9.82421875 27.8828125 C9.81777344 26.81289062 9.81132813 25.74296875 9.8046875 24.640625 C9.79421387 23.65610352 9.78374023 22.67158203 9.77294922 21.65722656 C10.00510382 18.94026889 10.60963727 17.31887487 12 15 C12.66 15 13.32 15 14 15 C13.67 11.04 13.34 7.08 13 3 C8.71 2.34 4.42 1.68 0 1 C0 0.67 0 0.34 0 0 Z " transform="translate(102,67)" style="fill: #D59270;"/><path d="M0 0 C0.66 0.66 1.32 1.32 2 2 C1.67 3.65 1.34 5.3 1 7 C-4.94 7.495 -4.94 7.495 -11 8 C-11 9.32 -11 10.64 -11 12 C-10.01 11.67 -9.02 11.34 -8 11 C-8 11.66 -8 12.32 -8 13 C-9.875 14.0625 -9.875 14.0625 -12 15 C-12.66 14.67 -13.32 14.34 -14 14 C-14 10.37 -14 6.74 -14 3 C-9.08953041 0.59487204 -5.59608536 -0.54863582 0 0 Z " transform="translate(139,95)" style="fill: #DB8E66;"/><path d="M0 0 C1 2 1 2 0.22265625 4.8203125 C-0.8515625 7.88020833 -1.92578125 10.94010417 -3 14 C-7.95 14 -12.9 14 -18 14 C-14 11 -14 11 -12 11 C-12 10.34 -12 9.68 -12 9 C-5.25 5 -5.25 5 -3 5 C-2.690625 4.360625 -2.38125 3.72125 -2.0625 3.0625 C-1 1 -1 1 0 0 Z " transform="translate(148,192)" style="fill: #D9E8E2;"/><path d="M0 0 C9.41002278 -0.3690205 9.41002278 -0.3690205 14 2 C13.278125 2.70125 12.55625 3.4025 11.8125 4.125 C9.00176187 6.92770745 6.50483774 9.92262792 4 13 C3.34 12.67 2.68 12.34 2 12 C2 11.01 2 10.02 2 9 C1.46646021 6.06553116 1.17413762 5.17413762 -1 3 C-0.34 2.67 0.32 2.34 1 2 C0.67 1.34 0.34 0.68 0 0 Z " transform="translate(64,23)" style="fill: #123625;"/><path d="M0 0 C-1.98 0.66 -3.96 1.32 -6 2 C-5.566875 2.77085937 -5.13375 3.54171875 -4.6875 4.3359375 C-3.8521875 5.84027344 -3.8521875 5.84027344 -3 7.375 C-2.1646875 8.87160156 -2.1646875 8.87160156 -1.3125 10.3984375 C0 13 0 13 0 15 C-3.3 15 -6.6 15 -10 15 C-9.34 10.05 -8.68 5.1 -8 0 C-3 -1 -3 -1 0 0 Z " transform="translate(96,191)" style="fill: #E0E5D7;"/><path d="M0 0 C0.99 0.33 1.98 0.66 3 1 C2.67 1.99 2.34 2.98 2 4 C2.99 4.66 3.98 5.32 5 6 C5.40843923 8.71203652 5.13336867 11.2437142 5 14 C1.78548731 15.60725635 -1.43612536 15.05748185 -5 15 C-3.33333333 10 -1.66666667 5 0 0 Z " transform="translate(147,79)" style="fill: #D6E8DD;"/><path d="M0 0 C0.79921875 0.00644531 1.5984375 0.01289062 2.421875 0.01953125 C3.246875 0.03628906 4.071875 0.05304688 4.921875 0.0703125 C5.76234375 0.07933594 6.6028125 0.08835937 7.46875 0.09765625 C9.53658104 0.12115433 11.60426495 0.15702342 13.671875 0.1953125 C14.166875 1.6803125 14.166875 1.6803125 14.671875 3.1953125 C13.79789063 3.11410156 12.92390625 3.03289062 12.0234375 2.94921875 C2.03737899 2.43630799 -5.21486629 4.58366629 -14.33203125 8.56640625 C-17.63832604 9.99842702 -20.72574773 10.79125439 -24.328125 11.1953125 C-24.328125 10.5353125 -24.328125 9.8753125 -24.328125 9.1953125 C-22.97267578 8.77958984 -22.97267578 8.77958984 -21.58984375 8.35546875 C-20.41035156 7.99324219 -19.23085937 7.63101563 -18.015625 7.2578125 C-16.25798828 6.71833984 -16.25798828 6.71833984 -14.46484375 6.16796875 C-12.41258523 5.53158971 -10.36652363 4.87477871 -8.328125 4.1953125 C-8.328125 3.5353125 -8.328125 2.8753125 -8.328125 2.1953125 C-5.40988256 0.52856929 -3.35218121 -0.0478883 0 0 Z " transform="translate(100.328125,64.8046875)" style="fill: #1D250C;"/><path d="M0 0 C1.90608098 3.21182149 2.22266247 5.53882603 2.125 9.25 C2.10695313 10.14203125 2.08890625 11.0340625 2.0703125 11.953125 C2.03550781 12.96632812 2.03550781 12.96632812 2 14 C-0.97 14 -3.94 14 -7 14 C-5.58078953 9.5240285 -3.99799416 5.24573759 -2 1 C-1.34 0.67 -0.68 0.34 0 0 Z " transform="translate(80,192)" style="fill: #D8E7DE;"/><path d="M0 0 C-1.12451727 2.9719385 -2.22293791 5.33440687 -4 8 C-3.98283648 10.61743658 -3.8673225 13.09222605 -3.625 15.6875 C-3.56828125 16.38939453 -3.5115625 17.09128906 -3.453125 17.81445312 C-3.31195359 19.54380285 -3.15728041 21.27204088 -3 23 C-5.31 23 -7.62 23 -10 23 C-5.73595506 0 -5.73595506 0 0 0 Z " transform="translate(74,88)" style="fill: #F8B89C;"/><path d="M0 0 C0.99 0.33 1.98 0.66 3 1 C-8.14671827 8.03621478 -22.3660701 16.67918101 -36 16 C-35.34 15.67 -34.68 15.34 -34 15 C-34 14.34 -34 13.68 -34 13 C-33.39414063 12.98582031 -32.78828125 12.97164062 -32.1640625 12.95703125 C-26.06434078 12.60981632 -21.66225547 11.20967865 -16.32421875 8.25390625 C-14 7 -14 7 -11.30078125 5.9375 C-8.95245366 5.16248864 -8.95245366 5.16248864 -7.5 3.4375 C-5.4935513 1.51465333 -3.69520493 1.42555867 -1 1 C-0.67 0.67 -0.34 0.34 0 0 Z " transform="translate(107,158)" style="fill: #202508;"/><path d="M0 0 C2 1 2 1 3.4375 4.4375 C4.70190988 8.19068113 4.70190988 8.19068113 8 10 C7.34 10 6.68 10 6 10 C6 10.66 6 11.32 6 12 C4.35 11.67 2.7 11.34 1 11 C1 19.91 1 28.82 1 38 C0.67 38 0.34 38 0 38 C0 25.46 0 12.92 0 0 Z " transform="translate(47,114)" style="fill: #08220E;"/><path d="M0 0 C0.99 0.33 1.98 0.66 3 1 C3 1.99 3 2.98 3 4 C5.83269666 5.41634833 8.47466438 5.3463005 11.625 5.5625 C12.81351563 5.64628906 14.00203125 5.73007813 15.2265625 5.81640625 C16.59941406 5.90728516 16.59941406 5.90728516 18 6 C18.33 6.99 18.66 7.98 19 9 C18.505 8.835 18.01 8.67 17.5 8.5 C9.35335817 6.87067163 4.82824114 8.57428815 -2 13 C-2 11.02 -2 9.04 -2 7 C-1.34 6.67 -0.68 6.34 0 6 C-0.33 5.34 -0.66 4.68 -1 4 C-0.34 3.34 0.32 2.68 1 2 C0.67 1.34 0.34 0.68 0 0 Z " transform="translate(61,119)" style="fill: #112E1B;"/><path d="M0 0 C1.21236328 0.01353516 1.21236328 0.01353516 2.44921875 0.02734375 C3.37154297 0.04474609 3.37154297 0.04474609 4.3125 0.0625 C4.3125 0.3925 4.3125 0.7225 4.3125 1.0625 C-1.1325 1.5575 -1.1325 1.5575 -6.6875 2.0625 C-6.64625 3.238125 -6.605 4.41375 -6.5625 5.625 C-6.54766365 9.78659674 -7.37579222 13.12737667 -8.6875 17.0625 C-10.0075 17.0625 -11.3275 17.0625 -12.6875 17.0625 C-13.0175 12.7725 -13.3475 8.4825 -13.6875 4.0625 C-13.0275 4.0625 -12.3675 4.0625 -11.6875 4.0625 C-11.6875 6.3725 -11.6875 8.6825 -11.6875 11.0625 C-10.6975 11.0625 -9.7075 11.0625 -8.6875 11.0625 C-8.3575 7.7625 -8.0275 4.4625 -7.6875 1.0625 C-4.80538698 0.10179566 -2.98899956 -0.04331883 0 0 Z " transform="translate(94.6875,188.9375)" style="fill: #CC9674;"/><path d="M0 0 C3.95096978 -0.04939662 7.9018203 -0.08571755 11.85302734 -0.10986328 C13.8591136 -0.12488107 15.86511324 -0.15028981 17.87109375 -0.17578125 C19.12792969 -0.18222656 20.38476562 -0.18867187 21.6796875 -0.1953125 C22.84226074 -0.20578613 24.00483398 -0.21625977 25.20263672 -0.22705078 C28 0 28 0 30 2 C29.34 2 28.68 2 28 2 C27.67 2.99 27.34 3.98 27 5 C26.67 4.67 26.34 4.34 26 4 C24.07841754 3.70109551 22.1476405 3.46084894 20.21484375 3.24609375 C19.04501953 3.11396484 17.87519531 2.98183594 16.66992188 2.84570312 C14.82237305 2.64364258 14.82237305 2.64364258 12.9375 2.4375 C11.70193359 2.29892578 10.46636719 2.16035156 9.19335938 2.01757812 C6.12931788 1.67450012 3.06487982 1.33549246 0 1 C0 0.67 0 0.34 0 0 Z " transform="translate(63,119)" style="fill: #0A240F;"/><path d="M0 0 C-9.55430859 6.36953906 -21.93914591 5.66760128 -33 6 C-33.33 7.65 -33.66 9.3 -34 11 C-35.04449911 7.86650268 -34.93423645 7.01031744 -34 4 C-34.99 3.67 -35.98 3.34 -37 3 C-36.40574219 3.01571045 -35.81148438 3.0314209 -35.19921875 3.04760742 C-32.46624546 3.11056569 -29.73342545 3.14918095 -27 3.1875 C-26.06542969 3.21263672 -25.13085938 3.23777344 -24.16796875 3.26367188 C-15.52946705 3.35428553 -8.5477247 -0.45791382 0 0 Z " transform="translate(120,184)" style="fill: #EA9069;"/><path d="M0 0 C0.66 0 1.32 0 2 0 C4.60758587 7.15533979 5.38999191 13.40237976 5 21 C5.66 21 6.32 21 7 21 C7.66 25.62 8.32 30.24 9 35 C8.01 35.495 8.01 35.495 7 36 C6.85900879 35.31486328 6.71801758 34.62972656 6.57275391 33.92382812 C5.92522926 30.78219338 5.27513378 27.6410958 4.625 24.5 C4.40328125 23.42234375 4.1815625 22.3446875 3.953125 21.234375 C2.99660283 16.62056218 2.03453734 12.02638891 0.8359375 7.46875 C0 4 0 4 0 0 Z " transform="translate(136,138)" style="fill: #C4CCB3;"/><path d="M0 0 C1.32 0.33 2.64 0.66 4 1 C3.67 3.97 3.34 6.94 3 10 C2.01 10.33 1.02 10.66 0 11 C0 11.66 0 12.32 0 13 C-0.66 13 -1.32 13 -2 13 C-2.84098656 8.98195309 -3.05404945 5.98196457 -2 2 C-1.34 2 -0.68 2 0 2 C0 1.34 0 0.68 0 0 Z " transform="translate(35,47)" style="fill: #EBF4F1;"/><path d="M0 0 C3.38423992 0.29007771 4.99923 0.9994225 7.75 3.0625 C10.68362575 6.8925114 10.75806731 9.24199046 11 14 C6.93962888 14.96308613 3.10599699 15.16520857 -1.0625 15.1875 C-2.87427734 15.20876953 -2.87427734 15.20876953 -4.72265625 15.23046875 C-7.78742498 15.01494866 -9.43995415 14.61519102 -12 13 C-10.83082031 13.01160156 -9.66164063 13.02320313 -8.45703125 13.03515625 C-6.90885577 13.04453913 -5.36067855 13.0536388 -3.8125 13.0625 C-3.04357422 13.07087891 -2.27464844 13.07925781 -1.48242188 13.08789062 C2.48526789 13.10491934 6.12571234 12.98604115 10 12 C9.09522263 10.53426066 8.17565859 9.07764244 7.25 7.625 C6.73953125 6.81289062 6.2290625 6.00078125 5.703125 5.1640625 C3.9326665 2.91444321 2.63092581 2.04093152 0 1 C0 0.67 0 0.34 0 0 Z " transform="translate(75,127)" style="fill: #AC683B;"/><path d="M0 0 C6.4130945 2.1008413 11.76800331 4.24618738 15.375 10.3125 C15.58125 10.869375 15.7875 11.42625 16 12 C15.01 12 14.02 12 13 12 C13 11.34 13 10.68 13 10 C12.01 9.67 11.02 9.34 10 9 C8 7 8 7 7 5 C6.34 5 5.68 5 5 5 C5 4.34 5 3.68 5 3 C4.34 3 3.68 3 3 3 C2.67 3.99 2.34 4.98 2 6 C1.01 5.67 0.02 5.34 -1 5 C-0.67 3.35 -0.34 1.7 0 0 Z M-3 5 C-1 6 -1 6 -1 6 Z " transform="translate(130,41)" style="fill: #092E1D;"/><path d="M0 0 C-0.33 1.65 -0.66 3.3 -1 5 C-6.94 5.495 -6.94 5.495 -13 6 C-13.33 7.65 -13.66 9.3 -14 11 C-14.75 9.25 -14.75 9.25 -15 7 C-13.375 4.75 -13.375 4.75 -11 3 C-8.25 2.75 -8.25 2.75 -6 3 C-5.67 2.01 -5.34 1.02 -5 0 C-2 -1 -2 -1 0 0 Z " transform="translate(141,97)" style="fill: #D47A4C;"/><path d="M0 0 C-2.77042109 2.77042109 -4.76533805 2.39796106 -8.625 2.625 C-9.81351562 2.69976562 -11.00203125 2.77453125 -12.2265625 2.8515625 C-13.59941406 2.92503906 -13.59941406 2.92503906 -15 3 C-14.67 6.3 -14.34 9.6 -14 13 C-16.39763185 10.60236815 -16.34280586 9.66726502 -16.625 6.375 C-16.69976562 5.55773437 -16.77453125 4.74046875 -16.8515625 3.8984375 C-16.90054688 3.27195313 -16.94953125 2.64546875 -17 2 C-14.91952703 1.4678559 -12.83547707 0.94968214 -10.75 0.4375 C-9.58984375 0.14746094 -8.4296875 -0.14257812 -7.234375 -0.44140625 C-4.27909017 -0.95179964 -2.75565899 -1.02996165 0 0 Z " transform="translate(88,172)" style="fill: #B76A3E;"/><path d="M0 0 C0.33 0 0.66 0 1 0 C1.19335938 1.03898438 1.38671875 2.07796875 1.5859375 3.1484375 C1.71129883 3.8197168 1.83666016 4.49099609 1.96582031 5.18261719 C2.23954617 6.64923905 2.51232632 8.11603771 2.78417969 9.58300781 C3.68307585 14.40630101 4.66223958 19.20303817 5.765625 23.984375 C6.02809981 26.24165837 5.67906138 27.84640533 5 30 C3.66666667 24.66666667 2.33333333 19.33333333 1 14 C0.81695312 13.31292969 0.63390625 12.62585938 0.4453125 11.91796875 C-0.11849285 9.48964921 -0.09525611 7.23946452 -0.0625 4.75 C-0.05347656 3.85796875 -0.04445312 2.9659375 -0.03515625 2.046875 C-0.02355469 1.37140625 -0.01195312 0.6959375 0 0 Z " transform="translate(135,134)" style="fill: #D59977;"/><path d="M0 0 C-1.98 0.99 -1.98 0.99 -4 2 C-4 2.99 -4 3.98 -4 5 C-4.99 5 -5.98 5 -7 5 C-7 4.34 -7 3.68 -7 3 C-7.66 3 -8.32 3 -9 3 C-9.33 3.99 -9.66 4.98 -10 6 C-12.64 6 -15.28 6 -18 6 C-15.05442083 4.03628055 -12.24961274 2.70234663 -9 1.3125 C-7.4221875 0.62607422 -7.4221875 0.62607422 -5.8125 -0.07421875 C-3 -1 -3 -1 0 0 Z " transform="translate(100,69)" style="fill: #C78B68;"/><path d="M0 0 C1.81455688 0.07069702 1.81455688 0.07069702 3.66577148 0.14282227 C5.62353516 0.21533203 5.62353516 0.21533203 7.62084961 0.28930664 C9.00952598 0.34583683 10.39819781 0.40247892 11.78686523 0.45922852 C13.17942544 0.51243399 14.5720035 0.56517448 15.96459961 0.61743164 C19.38472504 0.74760943 22.80459448 0.88259032 26.22436523 1.02172852 C26.22436523 1.35172852 26.22436523 1.68172852 26.22436523 2.02172852 C25.52875488 2.04678467 24.83314453 2.07184082 24.11645508 2.09765625 C20.94393069 2.21418826 17.77166169 2.3366542 14.59936523 2.45922852 C13.50495117 2.49854492 12.41053711 2.53786133 11.28295898 2.57836914 C9.68774414 2.64121094 9.68774414 2.64121094 8.06030273 2.70532227 C7.08625488 2.74197998 6.11220703 2.7786377 5.10864258 2.81640625 C2.09888003 3.0306614 -0.80859393 3.48104209 -3.77563477 4.02172852 C-3.77563477 0.02955682 -3.77563477 0.02955682 0 0 Z " transform="translate(61.775634765625,115.978271484375)" style="fill: #E9C1AD;"/><path d="M0 0 C3.0625 0.125 3.0625 0.125 5.0625 1.125 C5.0625 1.785 5.0625 2.445 5.0625 3.125 C1.97361478 5.18425681 1.35314073 5.3640374 -2.125 5.25 C-4.0121875 5.188125 -4.0121875 5.188125 -5.9375 5.125 C-3.53035214 0.15022775 -3.53035214 0.15022775 0 0 Z " transform="translate(133.9375,33.875)" style="fill: #13281C;"/><path d="M0 0 C3.625 0.375 3.625 0.375 7 1 C7 1.99 7 2.98 7 4 C4.0936485 6.80255323 3.21174952 7 -1 7 C-1.625 4.625 -1.625 4.625 -2 2 C-1.34 1.34 -0.68 0.68 0 0 Z " transform="translate(70,23)" style="fill: #0A291A;"/><path d="M0 0 C0.33 0 0.66 0 1 0 C0.67 3.63 0.34 7.26 0 11 C0.66 11 1.32 11 2 11 C2 12.65 2 14.3 2 16 C1.01 16.33 0.02 16.66 -1 17 C-1.33 17.99 -1.66 18.98 -2 20 C-2.21133202 12.95559921 -2.07965362 6.75887425 0 0 Z " transform="translate(51,84)" style="fill: #E7C0AD;"/><path d="M0 0 C0 3.15081975 -0.27898465 4.41847698 -2 7 C-3.32594105 7.36162029 -4.65938457 7.69728039 -6 8 C-6.33 8.99 -6.66 9.98 -7 11 C-9.475 10.01 -9.475 10.01 -12 9 C-8.11327187 5.81994972 -4.10047867 2.89445553 0 0 Z " transform="translate(114,155)" style="fill: #BA6839;"/><path d="M0 0 C2.31 0 4.62 0 7 0 C7.50615298 1.26839526 8.00469099 2.53983102 8.5 3.8125 C8.7784375 4.52019531 9.056875 5.22789062 9.34375 5.95703125 C10 8 10 8 10 11 C8.35 10.67 6.7 10.34 5 10 C5.33 7.69 5.66 5.38 6 3 C4.02 2.34 2.04 1.68 0 1 C0 0.67 0 0.34 0 0 Z " transform="translate(52,195)" style="fill: #489974;"/><path d="M0 0 C1.26070312 0.02030273 1.26070312 0.02030273 2.546875 0.04101562 C4.61485938 0.07626536 6.68251271 0.1300698 8.75 0.1875 C9.08 1.1775 9.41 2.1675 9.75 3.1875 C8.59242187 3.10371094 7.43484375 3.01992187 6.2421875 2.93359375 C4.70314934 2.83036558 3.1640854 2.72752131 1.625 2.625 C0.48417969 2.54088867 0.48417969 2.54088867 -0.6796875 2.45507812 C-5.04993128 2.17251926 -8.93070669 2.25602301 -13.25 3.1875 C-9.41669799 -0.82482985 -5.15568073 -0.15708715 0 0 Z " transform="translate(105.25,64.8125)" style="fill: #0D2A19;"/><path d="M0 0 C0.66 0.33 1.32 0.66 2 1 C1.01 2.485 1.01 2.485 0 4 C1.65 4 3.3 4 5 4 C2.80992208 6.19007792 0.82360408 7.23836623 -1.9375 8.625 C-3.25041016 9.29402344 -3.25041016 9.29402344 -4.58984375 9.9765625 C-7 11 -7 11 -10 11 C-9.4946875 10.59007812 -8.989375 10.18015625 -8.46875 9.7578125 C-7.8190625 9.21898437 -7.169375 8.68015625 -6.5 8.125 C-5.8503125 7.59132813 -5.200625 7.05765625 -4.53125 6.5078125 C-4.0259375 6.01023437 -3.520625 5.51265625 -3 5 C-3 4.34 -3 3.68 -3 3 C-2.34 3 -1.68 3 -1 3 C-0.67 2.01 -0.34 1.02 0 0 Z " transform="translate(80,21)" style="fill: #C3D3C9;"/><path d="M0 0 C0.99 0 1.98 0 3 0 C3 0.99 3 1.98 3 3 C2.29875 3.12117187 1.5975 3.24234375 0.875 3.3671875 C-4.81970105 4.37304502 -10.40894019 5.52311628 -16 7 C-16 6.34 -16 5.68 -16 5 C-14.274773 4.32320342 -12.54461061 3.65898 -10.8125 3 C-9.84957031 2.62875 -8.88664062 2.2575 -7.89453125 1.875 C-5.07817642 1.02363228 -2.91835561 0.82927353 0 1 C0 0.67 0 0.34 0 0 Z " transform="translate(56,192)" style="fill: #9DD1B6;"/><path d="M0 0 C1.42505859 0.49113281 1.42505859 0.49113281 2.87890625 0.9921875 C7.56136707 2.33003345 12.10295873 2.22058789 16.9375 2.125 C17.81212891 2.11597656 18.68675781 2.10695312 19.58789062 2.09765625 C21.72538064 2.0742957 23.86272786 2.03843247 26 2 C22.87070822 3.83069903 20.62356854 4.23931181 17.015625 4.1953125 C16.08105469 4.18886719 15.14648438 4.18242187 14.18359375 4.17578125 C13.21550781 4.15902344 12.24742188 4.14226562 11.25 4.125 C10.26644531 4.11597656 9.28289062 4.10695312 8.26953125 4.09765625 C5.84610593 4.07412785 3.42317778 4.04125368 1 4 C0.67 2.68 0.34 1.36 0 0 Z " transform="translate(60,139)" style="fill: #20280B;"/><path d="M0 0 C1.125 1.75 1.125 1.75 2 4 C1.125 6.25 1.125 6.25 0 8 C-2.97 7.505 -2.97 7.505 -6 7 C-5.34 6.67 -4.68 6.34 -4 6 C-4 5.34 -4 4.68 -4 4 C-4.66 3.67 -5.32 3.34 -6 3 C-4.02 2.01 -2.04 1.02 0 0 Z " transform="translate(141,88)" style="fill: #133019;"/><path d="M0 0 C0.66 0 1.32 0 2 0 C0.84075591 3.09131757 -0.50815675 5.96979116 -2.0625 8.875 C-3.98523116 12.63468993 -4.65062654 15.80751852 -5 20 C-5.33 20 -5.66 20 -6 20 C-6.57535802 12.08882721 -4.37006472 6.55509708 0 0 Z " transform="translate(72,88)" style="fill: #DB997D;"/><path d="M0 0 C1.32 0.66 2.64 1.32 4 2 C3.67 3.32 3.34 4.64 3 6 C4.32 6.66 5.64 7.32 7 8 C4.69 8 2.38 8 0 8 C-0.98120464 4.94736336 -0.98120464 3.05263664 0 0 Z " transform="translate(130,25)" style="fill: #EFF7F2;"/><path d="M0 0 C1.74216797 0.02707031 1.74216797 0.02707031 3.51953125 0.0546875 C4.39996094 0.07789062 5.28039062 0.10109375 6.1875 0.125 C6.5175 1.115 6.8475 2.105 7.1875 3.125 C6.6925 2.96 6.1975 2.795 5.6875 2.625 C0.77899915 1.64329983 -3.25329064 1.31149946 -7.6875 3.625 C-8.38875 4.12 -9.09 4.615 -9.8125 5.125 C-10.4725 5.125 -11.1325 5.125 -11.8125 5.125 C-11.8125 4.135 -11.8125 3.145 -11.8125 2.125 C-7.73526266 0.17468308 -4.49557578 -0.09081971 0 0 Z " transform="translate(72.8125,124.875)" style="fill: #29290D;"/><path d="M0 0 C1.27450447 0.59638333 2.54446877 1.20247416 3.8125 1.8125 C4.52019531 2.14894531 5.22789063 2.48539063 5.95703125 2.83203125 C8.01129035 4.00645471 9.41616278 5.25628016 11 7 C9.25 7.75 9.25 7.75 7 8 C5.66666667 6.66666667 4.33333333 5.33333333 3 4 C0.33165034 3.66501699 0.33165034 3.66501699 -2 4 C-1.34 3.67 -0.68 3.34 0 3 C0 2.01 0 1.02 0 0 Z " transform="translate(109,26)" style="fill: #102F20;"/><path d="M0 0 C1.32 0 2.64 0 4 0 C3.979375 0.78375 3.95875 1.5675 3.9375 2.375 C3.81315937 4.98114961 3.81315937 4.98114961 5 7 C4.5625 9.125 4.5625 9.125 4 11 C3.01 11 2.02 11 1 11 C1.33 8.36 1.66 5.72 2 3 C1.34 3 0.68 3 0 3 C0 2.01 0 1.02 0 0 Z " transform="translate(82,189)" style="fill: #EA8A61;"/><path d="M0 0 C0.33 0 0.66 0 1 0 C1.1921227 5.47549707 0.99186369 9.86308839 -1 15 C-1.99 15.33 -2.98 15.66 -4 16 C-3.31092878 12.34056353 -2.43178734 8.77558041 -1.4375 5.1875 C-1.16808594 4.21167969 -0.89867188 3.23585938 -0.62109375 2.23046875 C-0.41613281 1.49441406 -0.21117188 0.75835937 0 0 Z " transform="translate(116,97)" style="fill: #212D13;"/><path d="M0 0 C1.40907283 2.81814566 0.50872691 4.17277204 -0.4375 7.125 C-0.72496094 8.03507813 -1.01242188 8.94515625 -1.30859375 9.8828125 C-1.53675781 10.58148438 -1.76492187 11.28015625 -2 12 C-2.99 11.34 -3.98 10.68 -5 10 C-5.1875 7.375 -5.1875 7.375 -5 5 C-4.34 5 -3.68 5 -3 5 C-2.5359375 4.0409375 -2.5359375 4.0409375 -2.0625 3.0625 C-1 1 -1 1 0 0 Z " transform="translate(148,192)" style="fill: #CBE8D9;"/><path d="M0 0 C-0.33 0.99 -0.66 1.98 -1 3 C-6.70985978 3.74016701 -12.24186425 4.10469338 -18 4 C-18 3.67 -18 3.34 -18 3 C-15.75113762 2.49490792 -13.50086131 1.99610821 -11.25 1.5 C-9.37054688 1.08234375 -9.37054688 1.08234375 -7.453125 0.65625 C-4 0 -4 0 0 0 Z " transform="translate(117,186)" style="fill: #FCEBDB;"/><path d="M0 0 C-2.92617435 1.9507829 -5.02044581 2.71513462 -8.375 3.625 C-9.77878906 4.01558594 -9.77878906 4.01558594 -11.2109375 4.4140625 C-13.90123635 4.97925133 -16.26144571 5.10954217 -19 5 C-12.8084943 0.87232954 -7.39019811 -0.39590347 0 0 Z " transform="translate(120,184)" style="fill: #DB9A79;"/><path d="M0 0 C0.66 0 1.32 0 2 0 C2.33 2.31 2.66 4.62 3 7 C1.8553125 7.1546875 1.8553125 7.1546875 0.6875 7.3125 C-2.17059424 8.04364039 -3.15742885 8.76951913 -5 11 C-3.55049545 7.2089881 -1.84827434 3.6125362 0 0 Z " transform="translate(69,175)" style="fill: #F8F1E3;"/><path d="M0 0 C3.85015692 -0.08953853 7.24151077 0.20873911 11 1 C12.32 1 13.64 1 15 1 C15 1.66 15 2.32 15 3 C15.99 3.33 16.98 3.66 18 4 C11.58518742 4.42765417 6.11404596 2.85743168 0 1 C0 0.67 0 0.34 0 0 Z " transform="translate(173,98)" style="fill: #C4DFCF;"/><path d="M0 0 C0.66 0 1.32 0 2 0 C2.53341184 1.57914015 3.05125763 3.16354387 3.5625 4.75 C3.85253906 5.63171875 4.14257812 6.5134375 4.44140625 7.421875 C5.01697435 10.07834316 4.89248371 11.47031106 4 14 C1.8553857 11.8553857 1.55435397 10.98260002 0.875 8.125 C0.70742187 7.44695312 0.53984375 6.76890625 0.3671875 6.0703125 C0 4 0 4 0 0 Z " transform="translate(136,138)" style="fill: #C2C2A6;"/><path d="M0 0 C4.29 0 8.58 0 13 0 C13 0.66 13 1.32 13 2 C10.47524538 3.26237731 8.68799534 3.09856404 5.875 3.0625 C4.96492188 3.05347656 4.05484375 3.04445313 3.1171875 3.03515625 C2.41851562 3.02355469 1.71984375 3.01195313 1 3 C0.67 2.01 0.34 1.02 0 0 Z " transform="translate(63,74)" style="fill: #2C351E;"/><path d="M0 0 C1.37562854 1.28965176 2.70766393 2.62689293 4 4 C4 4.66 4 5.32 4 6 C5.98 5.67 7.96 5.34 10 5 C8.25 6.5625 8.25 6.5625 6 8 C3.875 7.875 3.875 7.875 2 7 C0 4 0 4 0 0 Z " transform="translate(49,115)" style="fill: #CAB29D;"/><path d="M0 0 C0.33 1.32 0.66 2.64 1 4 C0.01 4.495 0.01 4.495 -1 5 C-1.33 5.99 -1.66 6.98 -2 8 C-2.99 8 -3.98 8 -5 8 C-5.66 6.35 -6.32 4.7 -7 3 C-6.01 3.33 -5.02 3.66 -4 4 C-3.67 3.34 -3.34 2.68 -3 2 C-2.01 2 -1.02 2 0 2 C0 1.34 0 0.68 0 0 Z " transform="translate(115,78)" style="fill: #EC9870;"/><path d="M0 0 C1.33333333 2.66666667 2.66666667 5.33333333 4 8 C2.02 8 0.04 8 -2 8 C-2 6.68 -2 5.36 -2 4 C-2.99 3.67 -3.98 3.34 -5 3 C-4.360625 2.87625 -3.72125 2.7525 -3.0625 2.625 C-2.0415625 2.315625 -2.0415625 2.315625 -1 2 C-0.67 1.34 -0.34 0.68 0 0 Z " transform="translate(57,67)" style="fill: #D0B9A6;"/><path d="M0 0 C0.33 0 0.66 0 1 0 C1 3.96 1 7.92 1 12 C0.67 11.34 0.34 10.68 0 10 C-1.98 10.99 -1.98 10.99 -4 12 C-3.625 9.5625 -3.625 9.5625 -3 7 C-2.34 6.67 -1.68 6.34 -1 6 C-0.34227572 2.97065509 -0.34227572 2.97065509 0 0 Z " transform="translate(38,51)" style="fill: #D5E0DA;"/><path d="M0 0 C0.33 1.32 0.66 2.64 1 4 C-1.31 4 -3.62 4 -6 4 C-6 4.66 -6 5.32 -6 6 C-6.66 5.67 -7.32 5.34 -8 5 C-7.67 4.01 -7.34 3.02 -7 2 C-4.56723614 0.81480735 -2.71982714 0 0 0 Z " transform="translate(87,25)" style="fill: #122F20;"/><path d="M0 0 C0 0.99 0 1.98 0 3 C0.99 3.33 1.98 3.66 3 4 C0.525 5.485 0.525 5.485 -2 7 C-2.66 6.34 -3.32 5.68 -4 5 C-3.24242424 0 -3.24242424 0 0 0 Z " transform="translate(53,23)" style="fill: #DDE7E0;"/><path d="M0 0 C0.66 0 1.32 0 2 0 C1.72510809 4.03174806 1.46508424 5.56894631 -1.5625 8.375 C-2.366875 8.91125 -3.17125 9.4475 -4 10 C-4 7.69 -4 5.38 -4 3 C-3.67 3.66 -3.34 4.32 -3 5 C-2.34 4.67 -1.68 4.34 -1 4 C-0.34786708 1.97536745 -0.34786708 1.97536745 0 0 Z " transform="translate(118,145)" style="fill: #18260F;"/><path d="M0 0 C0.99 0 1.98 0 3 0 C3 0.66 3 1.32 3 2 C3.66 2 4.32 2 5 2 C5.1875 4.8125 5.1875 4.8125 5 8 C4.01 8.99 3.02 9.98 2 11 C2 7.7 2 4.4 2 1 C1.34 0.67 0.68 0.34 0 0 Z " transform="translate(44,107)" style="fill: #9DAF99;"/><path d="M0 0 C0 0.66 0 1.32 0 2 C-0.66 2 -1.32 2 -2 2 C-2 3.98 -2 5.96 -2 8 C-2.66 8 -3.32 8 -4 8 C-4.38063221 5.6739143 -4.71269945 3.33944736 -5 1 C-4 0 -4 0 0 0 Z " transform="translate(118,82)" style="fill: #E18C5F;"/><path d="M0 0 C0.66 0.33 1.32 0.66 2 1 C-1.12621626 4.39417765 -3.56541027 6.6062718 -8 8 C-8 6.35 -8 4.7 -8 3 C-6.576875 2.814375 -6.576875 2.814375 -5.125 2.625 C-1.91332809 2.28312823 -1.91332809 2.28312823 0 0 Z " transform="translate(49,29)" style="fill: #EDF8F2;"/><path d="M0 0 C3.63 0 7.26 0 11 0 C7.52630934 1.73684533 5.92380063 2.30084112 2.25 2.625 C1.45078125 2.69976562 0.6515625 2.77453125 -0.171875 2.8515625 C-0.77515625 2.90054688 -1.3784375 2.94953125 -2 3 C-1.34 2.67 -0.68 2.34 0 2 C0 1.34 0 0.68 0 0 Z " transform="translate(73,171)" style="fill: #22280E;"/><path d="M0 0 C-0.33 0.99 -0.66 1.98 -1 3 C-4.87862084 4.39044898 -7.86462003 5 -12 5 C-4.5 0 -4.5 0 0 0 Z " transform="translate(101,165)" style="fill: #AD6635;"/><path d="M0 0 C2.25 0.125 2.25 0.125 5 1 C7.3125 4.0625 7.3125 4.0625 9 7 C8.01 7 7.02 7 6 7 C6 6.34 6 5.68 6 5 C5.01 4.67 4.02 4.34 3 4 C1 2 1 2 0 0 Z " transform="translate(137,46)" style="fill: #1B3528;"/><path d="M0 0 C0.99 0.66 1.98 1.32 3 2 C2.49396008 4.16874252 2.00016187 5.99967627 1 8 C0.01 8 -0.98 8 -2 8 C-1.47731534 5.23723823 -0.89130413 2.6739124 0 0 Z " transform="translate(41,43)" style="fill: #153223;"/><path d="M0 0 C1.98 0.99 3.96 1.98 6 3 C6 3.99 6 4.98 6 6 C3.61435923 5.42415568 1.33317216 4.77772405 -1 4 C-0.67 2.68 -0.34 1.36 0 0 Z " transform="translate(124,38)" style="fill: #052314;"/><path d="M0 0 C0.97608217 2.92824652 1.08226668 4.95613276 1 8 C-0.32 7.67 -1.64 7.34 -3 7 C-2.25 2.25 -2.25 2.25 0 0 Z " transform="translate(118,151)" style="fill: #D3895E;"/><path d="M0 0 C1.5 1.375 1.5 1.375 3 3 C3 3.66 3 4.32 3 5 C3.99 5 4.98 5 6 5 C6 5.66 6 6.32 6 7 C3.69 7 1.38 7 -1 7 C-0.67 4.69 -0.34 2.38 0 0 Z " transform="translate(65,104)" style="fill: #E7AA8E;"/><path d="M0 0 C0.66 0.99 1.32 1.98 2 3 C0.63016497 6.16115776 0.0109362 6.9927092 -3 9 C-2.44271087 5.65626525 -1.64826111 2.96687001 0 0 Z " transform="translate(150,184)" style="fill: #E6F9F1;"/><path d="M0 0 C0.33 0 0.66 0 1 0 C1 3.3 1 6.6 1 10 C-0.32 10.33 -1.64 10.66 -3 11 C-3 10.34 -3 9.68 -3 9 C-2.34 9 -1.68 9 -1 9 C-0.67 6.03 -0.34 3.06 0 0 Z " transform="translate(47,96)" style="fill: #E0E8DE;"/><path d="M0 0 C-1 2 -1 2 -3.06640625 2.8515625 C-4.30197266 3.23441406 -4.30197266 3.23441406 -5.5625 3.625 C-6.80193359 4.01558594 -6.80193359 4.01558594 -8.06640625 4.4140625 C-8.70449219 4.60742188 -9.34257813 4.80078125 -10 5 C-9 2 -9 2 -7.25 0.8125 C-4.70039426 -0.10819096 -2.69076919 -0.14948718 0 0 Z " transform="translate(136,93)" style="fill: #1E270C;"/><path d="M0 0 C0.33 0.99 0.66 1.98 1 3 C-2.63 2.67 -6.26 2.34 -10 2 C-6.00889681 0.0044484 -4.30013434 -0.19546065 0 0 Z " transform="translate(114,65)" style="fill: #333016;"/><path d="M0 0 C1.67542976 0.28604898 3.34385343 0.61781233 5 1 C4.34 2.32 3.68 3.64 3 5 C2.01 4.67 1.02 4.34 0 4 C-0.33 3.01 -0.66 2.02 -1 1 C-0.67 0.67 -0.34 0.34 0 0 Z " transform="translate(125,32)" style="fill: #F2F9F3;"/><path d="M0 0 C1.42944945 2.35438733 2.08661261 3.48032433 1.625 6.25 C1.41875 6.8275 1.2125 7.405 1 8 C-0.5 6.75 -0.5 6.75 -2 5 C-2 3.68 -2 2.36 -2 1 C-1.34 0.67 -0.68 0.34 0 0 Z " transform="translate(80,192)" style="fill: #E1DCCA;"/><path d="M0 0 C0.99 0.66 1.98 1.32 3 2 C2.67 2.66 2.34 3.32 2 4 C2.99 4.33 3.98 4.66 5 5 C4.34 5.66 3.68 6.32 3 7 C1.35 5.68 -0.3 4.36 -2 3 C-1.34 3 -0.68 3 0 3 C0 2.01 0 1.02 0 0 Z " transform="translate(114,24)" style="fill: #DEE7E2;"/><path d="M0 0 C1.32 0 2.64 0 4 0 C3.67 1.65 3.34 3.3 3 5 C2.01 5 1.02 5 0 5 C0 3.35 0 1.7 0 0 Z " transform="translate(111,22)" style="fill: #EFF5F1;"/></svg>